<svg width="149" height="88" viewBox="0 0 149 88" fill="none" xmlns="http://www.w3.org/2000/svg">
<path d="M0.968018 53.4H8.79202C11.512 53.4 13.496 54.04 14.744 55.32C15.992 56.568 16.616 58.504 16.616 61.128V63.192C16.616 66.68 15.464 68.888 13.16 69.816V69.912C14.44 70.296 15.336 71.08 15.848 72.264C16.392 73.448 16.664 75.032 16.664 77.016V82.92C16.664 83.88 16.696 84.664 16.76 85.272C16.824 85.848 16.984 86.424 17.24 87H11.864C11.672 86.456 11.544 85.944 11.48 85.464C11.416 84.984 11.384 84.12 11.384 82.872V76.728C11.384 75.192 11.128 74.12 10.616 73.512C10.136 72.904 9.28802 72.6 8.07202 72.6H6.24802V87H0.968018V53.4ZM8.16802 67.8C9.22402 67.8 10.008 67.528 10.52 66.984C11.064 66.44 11.336 65.528 11.336 64.248V61.656C11.336 60.44 11.112 59.56 10.664 59.016C10.248 58.472 9.57602 58.2 8.64802 58.2H6.24802V67.8H8.16802Z" fill="#111D43"/>
<path d="M33.0474 53.4H40.1994L45.6714 87H40.3914L39.4314 80.328V80.424H33.4314L32.4714 87H27.5754L33.0474 53.4ZM38.8074 75.864L36.4554 59.256H36.3594L34.0554 75.864H38.8074Z" fill="#111D43"/>
<path d="M58.121 87.192C57.161 87.192 56.345 87.128 55.673 87V82.2C56.185 82.328 56.761 82.392 57.401 82.392C58.457 82.392 59.241 82.136 59.753 81.624C60.265 81.08 60.521 80.264 60.521 79.176V53.4H65.801V79.032C65.801 81.784 65.161 83.832 63.881 85.176C62.633 86.52 60.713 87.192 58.121 87.192Z" fill="#111D43"/>
<path d="M78.2161 53.4H85.9921C88.6161 53.4 90.5841 54.104 91.8961 55.512C93.2081 56.92 93.8641 58.984 93.8641 61.704V65.016C93.8641 67.736 93.2081 69.8 91.8961 71.208C90.5841 72.616 88.6161 73.32 85.9921 73.32H83.4961V87H78.2161V53.4ZM85.9921 68.52C86.8561 68.52 87.4961 68.28 87.9121 67.8C88.3601 67.32 88.5841 66.504 88.5841 65.352V61.368C88.5841 60.216 88.3601 59.4 87.9121 58.92C87.4961 58.44 86.8561 58.2 85.9921 58.2H83.4961V68.52H85.9921Z" fill="#111D43"/>
<path d="M113.052 87.48C110.492 87.48 108.54 86.76 107.196 85.32C105.852 83.848 105.18 81.752 105.18 79.032V53.4H110.46V79.416C110.46 80.568 110.684 81.4 111.132 81.912C111.612 82.424 112.284 82.68 113.148 82.68C114.012 82.68 114.668 82.424 115.116 81.912C115.596 81.4 115.836 80.568 115.836 79.416V53.4H120.924V79.032C120.924 81.752 120.252 83.848 118.908 85.32C117.564 86.76 115.612 87.48 113.052 87.48Z" fill="#111D43"/>
<path d="M137.452 58.2H131.932V53.4H148.252V58.2H142.732V87H137.452V58.2Z" fill="#111D43"/>
<path d="M1.33702 1.1H10.286L14.276 29.657H14.39L18.38 1.1H27.329V41H21.401V10.79H21.287L16.727 41H11.483L6.92302 10.79H6.80902V41H1.33702V1.1Z" fill="#111D43"/>
<path d="M51.3309 41.57C48.2529 41.57 45.8969 40.696 44.2629 38.948C42.6289 37.2 41.8119 34.73 41.8119 31.538V10.562C41.8119 7.37 42.6289 4.9 44.2629 3.152C45.8969 1.404 48.2529 0.529999 51.3309 0.529999C54.4089 0.529999 56.7649 1.404 58.3989 3.152C60.0329 4.9 60.8499 7.37 60.8499 10.562V31.538C60.8499 34.73 60.0329 37.2 58.3989 38.948C56.7649 40.696 54.4089 41.57 51.3309 41.57ZM51.3309 35.87C53.4969 35.87 54.5799 34.559 54.5799 31.937V10.163C54.5799 7.541 53.4969 6.23 51.3309 6.23C49.1649 6.23 48.0819 7.541 48.0819 10.163V31.937C48.0819 34.559 49.1649 35.87 51.3309 35.87Z" fill="#111D43"/>
<path d="M75.3502 1.1H81.6202V17.345H88.3462V1.1H94.6162V41H88.3462V23.045H81.6202V41H75.3502V1.1Z" fill="#111D43"/>
<path d="M109.546 1.1H115.816V41H109.546V1.1Z" fill="#111D43"/>
<path d="M135.674 6.8H129.119V1.1H148.499V6.8H141.944V41H135.674V6.8Z" fill="#111D43"/>
</svg>
