<svg id="Layer_1" data-name="Layer 1" xmlns="http://www.w3.org/2000/svg" viewBox="0 0 232.6 49.86"><defs><style>.cls-1{fill:#333;}</style></defs><title>mohitrajput-black</title><path class="cls-1" d="M256.05,169.59l0.47,0.07a0.59,0.59,0,0,1,.37.16,0.26,0.26,0,0,1,.12.09,0.64,0.64,0,0,0,.12.14l0.56,0.21a0.85,0.85,0,0,1,.47.35,0.29,0.29,0,0,1,.09.21,0.29,0.29,0,0,0,.09.21,1.75,1.75,0,0,0,.4.51,0.92,0.92,0,0,1,.3.56s0,0,0-.07,0-.07,0-0.07a5.43,5.43,0,0,0,0,.58,2.16,2.16,0,0,0,.07.37,1.14,1.14,0,0,1,0,.3,2.9,2.9,0,0,1,0,.42,0.12,0.12,0,0,1,0,.12,0.07,0.07,0,0,0,0,.07,0.31,0.31,0,0,0,0,.21,0.32,0.32,0,0,1,0,.21,8.41,8.41,0,0,1-.14,1,3.19,3.19,0,0,0,0,1,0.79,0.79,0,0,1-.09.4,3.11,3.11,0,0,0-.19.4,0.42,0.42,0,0,1,0,.19,0.41,0.41,0,0,0,0,.19q0,0.33-.09.61a5.57,5.57,0,0,1-.14.61h0.09a1.26,1.26,0,0,1-.12.26,0.49,0.49,0,0,0-.07.26,1.21,1.21,0,0,1-.12.19,0.24,0.24,0,0,0,0,.23,1.49,1.49,0,0,1-.07.51,2.5,2.5,0,0,0-.12.47c-0.06,0-.09,0-0.09,0l-0.09.19c0-.06,0,0,0,0.23a0.06,0.06,0,0,0,0,.09v0a4.88,4.88,0,0,0-.4.7c0,0.12-.13.4-0.26,0.84a8.33,8.33,0,0,1-.23.86l-0.16.47-0.16.49c-0.06.19-.17,0.47-0.33,0.84a0.51,0.51,0,0,0,.09.14s0,0.08,0,.14,0,0.09,0,.07,0,0,0,0a0.26,0.26,0,0,1-.23,0,0.49,0.49,0,0,1,0,.37l-0.19.28a0.45,0.45,0,0,1,.19.28c0,0.12,0,.2-0.23.23a0.22,0.22,0,0,1,0,.21,0.1,0.1,0,0,1-.09,0,0.1,0.1,0,0,0-.09,0s0,0.07,0,.16a2.84,2.84,0,0,1-.33.42h0.09a1.62,1.62,0,0,0-.14.47,0.4,0.4,0,0,0,.14.42,0.9,0.9,0,0,0-.07.19,0.41,0.41,0,0,1-.12.19c0.06,0,.08.05,0,0.07a0.08,0.08,0,0,0,0,.07s0,0,0,0,0,0-.09,0a0.08,0.08,0,0,0,.07.07,0.11,0.11,0,0,1,.07.12,0.32,0.32,0,0,0-.09.23l-0.19.09s0,0,.07,0,0.07,0,.07.07a0.15,0.15,0,0,0-.16.07,0.47,0.47,0,0,1-.12.16,0.63,0.63,0,0,1-.42-0.09v-0.09a0.12,0.12,0,0,0-.14,0,0.11,0.11,0,0,1-.14,0,0.38,0.38,0,0,1,0,.16s0,0.07.09,0.07a0.19,0.19,0,0,1,0,.14,0.06,0.06,0,0,0,0,.09q0.28,0,.28-0.19a0.22,0.22,0,0,1,.16,0,0.21,0.21,0,0,0,.16,0q-0.19.19,0,.28a1.1,1.1,0,0,1-.23.51,0.4,0.4,0,0,0,0,.51,0.62,0.62,0,0,1-.12.16,0.51,0.51,0,0,0-.12.21,0.44,0.44,0,0,1,0-.51,2.44,2.44,0,0,0,.19-0.47,0.18,0.18,0,0,0-.19.12,0.15,0.15,0,0,1-.14.12,1.29,1.29,0,0,1-.12.26,0.59,0.59,0,0,0-.07.3,0.44,0.44,0,0,0,.19-0.14c0.12,0.09.12,0.18,0,.26a0.89,0.89,0,0,1-.44.12,0.06,0.06,0,0,0,.09.07l0.19,0s0,0.06-.07.09a0.57,0.57,0,0,1-.21,0,1.54,1.54,0,0,1-.16.49,1.2,1.2,0,0,0-.12.58,0.4,0.4,0,0,0,.23-0.37q0.09-.09.16,0a0.22,0.22,0,0,0,.16.07,0.27,0.27,0,0,0-.19.23,0.32,0.32,0,0,1-.09.23,0.71,0.71,0,0,0-.37.19l0.19,0.23c0.06,0,.09,0,0.09,0s0-.07.09-0.07a0.22,0.22,0,0,1-.21.26l-0.4,0c0,0.06,0,.09.07,0.07s0.1,0,.07.07a0.19,0.19,0,0,1-.14,0h-0.19a0.38,0.38,0,0,0-.19.37,0.24,0.24,0,0,0,.21-0.09,0.23,0.23,0,0,1,.26,0,0.13,0.13,0,0,0,0,.09,0.37,0.37,0,0,1,0,.14,0.39,0.39,0,0,1,0,.12s0,0.05-.07,0-0.07-.05,0-0.07,0.05,0,0-.07a0.49,0.49,0,0,0-.28,0l0.09,0.19c-0.06.06-.09,0.08-0.09,0s0.09,0.09.28,0.09a0.42,0.42,0,0,1-.23.23,0.22,0.22,0,0,0-.14.23,1.12,1.12,0,0,1,.28.19,0.41,0.41,0,0,0-.42.47,0.14,0.14,0,0,0,.14,0,0.11,0.11,0,0,1,.14.07l-0.33.42a0.8,0.8,0,0,0,.33,0,0.73,0.73,0,0,0,.19-0.14s-0.05,0-.07,0,0,0.05-.07,0a1.77,1.77,0,0,0,.09-0.56,0.41,0.41,0,0,0,.19,0,0.2,0.2,0,0,1,.19,0q0,0.09,0,.12s0,0,0,.07-0.09,0-.07,0,0,0-.07,0-0.1.07-.12,0.21,0.05,0.18.21,0.12a0.46,0.46,0,0,1-.14.16q-0.09.07,0,.16h-0.23a0.09,0.09,0,0,1,0,.07,0.09,0.09,0,0,0,0,.07,0.08,0.08,0,0,0,.09.09,0.94,0.94,0,0,1-.42,0q0.19,0,.16-0.14a0.14,0.14,0,0,0-.16-0.09,2.39,2.39,0,0,0-.14.54,1.46,1.46,0,0,1-.19.54,0.36,0.36,0,0,0,.23,0,2.53,2.53,0,0,0-.35,1.3,1.86,1.86,0,0,1-.4,1.21,0.25,0.25,0,0,0,.21,0,0.24,0.24,0,0,1,.21,0l-0.23.37a0.42,0.42,0,0,0,0,.42,0.47,0.47,0,0,0-.16.54,0.91,0.91,0,0,1-.07.63l-0.14.19c0,0.06.05,0.08,0.07,0a0.12,0.12,0,0,1,.12,0l-0.09.19a0.61,0.61,0,0,0-.09.35,0.32,0.32,0,0,1-.23.3,0.3,0.3,0,0,0,.14.14,0.3,0.3,0,0,1,.14.14h-0.19c0,0.06.08,0.09,0.23,0.09a0.16,0.16,0,0,1-.12,0s-0.07,0-.07,0a0.53,0.53,0,0,0-.14.49,1,1,0,0,1,0,.54s0.05,0,.07,0,0,0,.07,0,0,0,0,0a0.07,0.07,0,0,0,0,.09,0,0,0,0,0,0,0,0.29,0.29,0,0,0-.14.16,0.13,0.13,0,0,1-.19.07,0.44,0.44,0,0,0,.14.19A2.12,2.12,0,0,0,251,206c0.06,0.31.12,0.43,0.19,0.37s0,0.08,0,.14v0.23l-0.14.09a0.64,0.64,0,0,1,0,.42,0.63,0.63,0,0,0,0,.42,0.42,0.42,0,0,0,.19,0,0.09,0.09,0,0,1,.14,0,0.21,0.21,0,0,1,0,.21,0.14,0.14,0,0,0,.07.21h-0.23L251.3,209a0.23,0.23,0,0,1,0,.21,0.29,0.29,0,0,0-.07.12,2.28,2.28,0,0,0,.07.58v-0.23a0.15,0.15,0,0,1,0,.19c0,0.06,0,.09.09,0.09a0.17,0.17,0,0,1,.09.23,0.24,0.24,0,0,0,.09.28,1.18,1.18,0,0,1-.14.28,0.31,0.31,0,0,0,0,.33,0.13,0.13,0,0,1-.16,0,0.22,0.22,0,0,0-.16-0.07,0.08,0.08,0,0,0-.07.07,0.1,0.1,0,0,0,0,.12l-0.75-.28c0.06,0,0,0-.09-0.14a3,3,0,0,1-.47-0.81,9.7,9.7,0,0,1-.54-1.84,18.1,18.1,0,0,1-.3-3.21,8.29,8.29,0,0,1,.12-1.42q0.12-.68.26-1.42l0.14-.93a1.38,1.38,0,0,0,0-.33,0.42,0.42,0,0,1,0-.28,1.16,1.16,0,0,1,.12-0.19,0.13,0.13,0,0,0,0-.19,0.27,0.27,0,0,0,.19,0,0.25,0.25,0,0,0-.09-0.12l-0.09-.07a22.72,22.72,0,0,1,.33-2.65q0.23-1.26.51-2.47a0.24,0.24,0,0,0,.23-0.09c0-.06-0.06-0.08-0.09-0.07s0,0,0,0a11.46,11.46,0,0,1,.33-2.44q0.28-1.09.51-2.26h0a0,0,0,0,1,0,0,5.15,5.15,0,0,0,.4-0.93,2.6,2.6,0,0,0,.07-1.16l0,0h0l0.23-.88a0.9,0.9,0,0,1,.09-0.26,1.66,1.66,0,0,0,.12-0.23q0.07-.16.3-0.82l0.28-.84q0.09-.23.16-0.47a1.48,1.48,0,0,0,.07-0.42,0.33,0.33,0,0,0,0-.14,0.16,0.16,0,0,1,0-.14,0.11,0.11,0,0,1,.07-0.12,0.29,0.29,0,0,0,.12-0.07,0.82,0.82,0,0,0,.12-0.37,1.6,1.6,0,0,0,0-.47,0.65,0.65,0,0,0,.3-0.4,1,1,0,0,1,.21-0.49c0,0.12,0,.09.09-0.09l0-.09v0l0.19-.61c0.09-.22.17-0.42,0.23-0.61l0.14-.42a0.42,0.42,0,0,0,0-.19q0.37-1.3.54-1.91t0.26-1q0.09-.42.19-1t0.33-1.82a6.67,6.67,0,0,0,.16-0.77,1,1,0,0,0-.12-0.72,0.79,0.79,0,0,1-.16-0.26,0.21,0.21,0,0,0-.16-0.16,0.51,0.51,0,0,0-.28,0,1.76,1.76,0,0,0-.33.07,6.35,6.35,0,0,0-1.91.51,2.86,2.86,0,0,0-.93.61,2.74,2.74,0,0,0-.23.28,2.7,2.7,0,0,1-.23.28l-0.51.33-0.19.23a3.64,3.64,0,0,1-.79.74,2.26,2.26,0,0,0-.7.75s-0.05,0-.07,0a0.08,0.08,0,0,0-.07,0,0.29,0.29,0,0,0-.23.23c-0.06.16-.11,0.28-0.14,0.37s0,0-.09-0.14a2.56,2.56,0,0,1-.61.79,2.13,2.13,0,0,0-.56.75h-0.23l-0.14.42a0.23,0.23,0,0,0-.3.14,0.91,0.91,0,0,1-.21.33q-0.65.79-1.3,1.68t-1.16,1.68q-0.93,1.54-2,3.26t-2.09,3.31q-0.42.75-.79,1.44a15.28,15.28,0,0,1-.88,1.44,3.5,3.5,0,0,1-1.16,1.3,2.23,2.23,0,0,1-.61.23,1.16,1.16,0,0,1-.61,0,0.82,0.82,0,0,0-.56.07l0.09,0.09h-0.14a0.18,0.18,0,0,1-.21-0.09,1,1,0,0,0-.07-0.19q0-.09,0,0.19a0.41,0.41,0,0,1-.09.28c-0.09-.12-0.2-0.12-0.33,0a0.5,0.5,0,0,1-.33.21,0.3,0.3,0,0,1-.12-0.26,0.51,0.51,0,0,0-.07-0.26s0,0-.12,0-0.12.05-.12,0l-0.16-.33a0.83,0.83,0,0,1-.07-0.37l0.14-.42a1.48,1.48,0,0,1,.12-0.4,1.5,1.5,0,0,0,.12-0.4l0.28-1a2.21,2.21,0,0,1,.28-0.84,5.42,5.42,0,0,0,.21-0.68c0-.2.1-0.46,0.16-0.77a0.32,0.32,0,0,1,0-.14,0.33,0.33,0,0,0,0-.14,0.65,0.65,0,0,1,0-.28l0.09-.19a0.59,0.59,0,0,0,.16-0.37,0.8,0.8,0,0,1,.12-0.37l0.19-.33a0.27,0.27,0,0,0,0-.33q0.6-1.54,1.23-3.35t1.14-3.58q0.14-.65.26-1.3t0.16-1.26q0-.23,0-0.58c0-.23-0.1-0.35-0.26-0.35a1.07,1.07,0,0,0-.33.09l-0.33.14q-0.47.28-.91,0.51a3.17,3.17,0,0,0-.77.56,2.68,2.68,0,0,0-.7.51,6.51,6.51,0,0,0-.61.7q-0.28.37-.56,0.7l-0.56.65a64.87,64.87,0,0,0-7,10.48l-0.42.79a2.7,2.7,0,0,1-.21.42c-0.08.12-.16,0.25-0.26,0.37l-0.47.77a3.9,3.9,0,0,0-.37.86l-0.47.81a2.75,2.75,0,0,0-.33.91q-0.09.61-.14,1.12a2.33,2.33,0,0,1-.28.93,8.45,8.45,0,0,0-.54,1.35q-0.21.7-.47,1.4t-0.54,1.33a4.27,4.27,0,0,1-.74,1.14l-0.37.16a0.56,0.56,0,0,0-.28.21s0,0-.09,0a0.11,0.11,0,0,0-.12.07,0.22,0.22,0,0,1-.12.12,3.29,3.29,0,0,0-.91-0.28,1.57,1.57,0,0,1-.86-0.42,0.36,0.36,0,0,0,0-.23v0a0.42,0.42,0,0,0,.19-0.35,2.27,2.27,0,0,1,0-.44,1.66,1.66,0,0,1,0-.47q0.14-.7.33-1.37t0.33-1.33q1.16-4.52,2.47-8.71t2.7-8.43q0.33-1.21.75-2.56l0.19-.65a2.34,2.34,0,0,1,.23-0.56,0.29,0.29,0,0,0,.09-0.21,0.46,0.46,0,0,1,0-.21l0.33-.84q0.14-.37.28-0.86a3.33,3.33,0,0,0,.14-0.91v-0.09a0.57,0.57,0,0,0-.09-0.14,0.52,0.52,0,0,1-.09-0.14,0.76,0.76,0,0,1,0-.19,1.7,1.7,0,0,1,.09-0.23,0.51,0.51,0,0,1,.23-0.19,0.14,0.14,0,0,1,.14,0l0.19,0,0.33-.14a1.74,1.74,0,0,1,.49,0l0.49,0,0.79,0.09a0.92,0.92,0,0,1,.7,1.16c0,0.25-.07.5-0.12,0.75l-0.16.84q0,0.47-.09.86a4.65,4.65,0,0,1-.14.72,4.29,4.29,0,0,1-.3.65,2.46,2.46,0,0,0-.26.65,19.52,19.52,0,0,0-.63,2.24q-0.26,1.16-.54,2.28a18.48,18.48,0,0,0,1.16-1.47q0.51-.72,1.07-1.47l0.26-.42a2.11,2.11,0,0,1,.3-0.37,11.62,11.62,0,0,0,.93-1q0.42-.53.88-1.09t0.93-1l1-1a3.48,3.48,0,0,0,.33-0.37,0.85,0.85,0,0,1,.37-0.28l0.79-.47q0.37-.23.84-0.47a5.26,5.26,0,0,1,1.54-.47,2.57,2.57,0,0,1,.51-0.09,0.42,0.42,0,0,1,.19,0l0.19,0.09,0.47,0.09,0.91,1.07a2.7,2.7,0,0,1,.58,1.35,0.58,0.58,0,0,1,0,.28,0.79,0.79,0,0,0,0,.33l0.09,0.19a0.32,0.32,0,0,1,.09.23,2.3,2.3,0,0,1,0,.65l-0.09.75-0.23,1.3a27.3,27.3,0,0,1-1.07,3.82q-0.7,2-1.26,3.63a0.08,0.08,0,0,0,.09-0.09,2.9,2.9,0,0,0,.33-0.42,13.73,13.73,0,0,0,1.09-2,11.72,11.72,0,0,1,1.09-2,0.81,0.81,0,0,1,.26-0.3,1,1,0,0,0,.26-0.26,3.57,3.57,0,0,0,.35-0.54q0.16-.3.35-0.58l0.19-.28a1.84,1.84,0,0,1,.23-0.28l0.84-1a1.2,1.2,0,0,1,.23-0.26,0.93,0.93,0,0,0,.23-0.3l0.84-1,1.91-2a27.06,27.06,0,0,1,2.89-2.75,1.64,1.64,0,0,1,.56-0.42l0.28-.19a0.25,0.25,0,0,0,.12-0.09,0.67,0.67,0,0,1,.12-0.14,11,11,0,0,1,1-.68q0.53-.3,1-0.63l0.28-.19a2.66,2.66,0,0,1,.47-0.14,2.61,2.61,0,0,0,.47-0.14l0.51-.07,0.56,0h0.75ZM236,193c0.06,0,.09.06,0.09,0.19a0.4,0.4,0,0,0-.23-0.14A0.19,0.19,0,0,1,236,193Zm0.19,0.23s-0.06,0-.09,0,0,0,0,0S236.14,193.24,236.17,193.24ZM251.3,204c0.06,0,.1.05,0.12,0.16s-0.05.15-.21,0.12a0.15,0.15,0,0,1,.09-0.14C251.36,204.06,251.36,204,251.3,204Zm0.47,0.65a0.27,0.27,0,0,1-.23-0.19,0.14,0.14,0,0,1,.21,0A0.11,0.11,0,0,1,251.77,204.6Zm0.09,1.63s0,0,0-.14-0.09,0-.09,0,0,0,0,0,0,0,0,0,0,0,0-.09a0.1,0.1,0,0,1,.12,0,0.11,0.11,0,0,0,.12,0,0.14,0.14,0,0,1,0,.14A0.6,0.6,0,0,0,251.86,206.23Zm0.79-7.22a0.45,0.45,0,0,0-.37.37,0.31,0.31,0,0,1-.23-0.09q0.33,0,.23-0.28h0.37Zm-0.33-1.07c0-.09,0-0.13.09-0.12s0.11,0.05,0,.12h-0.14Zm0.42-.56-0.14.07a0.47,0.47,0,0,1-.19,0,0.11,0.11,0,0,1,.09-0.16A0.25,0.25,0,0,1,252.75,197.39Zm0.23-.79a0.74,0.74,0,0,0-.12.33,0.75,0.75,0,0,1-.12.33,0.33,0.33,0,0,0-.21,0c-0.08,0-.12,0-0.12-0.07a0.19,0.19,0,0,1,.19,0c0.06-.06.08-0.11,0-0.14s-0.06,0-.19,0,0-.1,0-0.12,0.06-.05,0-0.12c0.15,0.06.25,0,.28,0A0.13,0.13,0,0,1,253,196.59Zm-0.14.79a0.19,0.19,0,0,1,0-.19c0.12,0,.19,0,0.19.12S253,197.45,252.84,197.39ZM253,195.2c0.06-.06.09-0.08,0.09,0a0,0,0,0,0,0,0c0,0.19-.06.25-0.19,0.19s0-.09,0-0.09S253.06,195.26,253,195.2Zm0.19,2.61a0.51,0.51,0,0,1,0,.3,0.19,0.19,0,0,1-.19.16,0.9,0.9,0,0,1,.14-0.47h0Zm0.84-4.28a0.15,0.15,0,0,1-.07.19,0.11,0.11,0,0,0,0,.19l-0.19,0a0.27,0.27,0,0,0-.19,0,0.15,0.15,0,0,0,.14.09c0.06,0,.06,0,0,0.09a0.53,0.53,0,0,1,.23,0c0,0.16-.11.22-0.33,0.19l0.09-.09-0.14-.09s0,0,0,0,0.05,0,0,.09a0.21,0.21,0,0,1-.16,0,0.1,0.1,0,0,0-.12.07v0.28a0.27,0.27,0,0,0,.19-0.23,0.15,0.15,0,0,0,.19,0,0.42,0.42,0,0,1,.19,0c0,0.12-.11.19-0.33,0.19a0.13,0.13,0,0,0,.19,0c0.09,0,.14,0,0.14,0a0.06,0.06,0,0,1-.09.07,0.14,0.14,0,0,0-.14,0,0.13,0.13,0,0,1,0-.09c-0.06,0-.1,0-0.12,0a0.22,0.22,0,0,1-.12.12,0.08,0.08,0,0,1,0-.09s0,0,0,0a0.16,0.16,0,0,0-.14.07s0,0.07,0,.07-0.11.06-.14,0a0.77,0.77,0,0,1,.37-0.61,0.28,0.28,0,0,1,.12-0.42A1.73,1.73,0,0,1,254,193.52Zm-0.56,3.63a0.19,0.19,0,0,1-.19.09h-0.23A0.32,0.32,0,0,1,253.49,197.15Zm0.33-2.37-0.14.14a0.27,0.27,0,0,0-.09.19,0.38,0.38,0,0,0-.23,0,0.37,0.37,0,0,1-.23,0,0.13,0.13,0,0,1,0-.09,0.29,0.29,0,0,1,.16,0,0.15,0.15,0,0,0,.16,0,0.3,0.3,0,0,0,.14-0.14A0.19,0.19,0,0,1,253.82,194.78Zm-0.23,1.07a0.29,0.29,0,0,1-.23.23,0.27,0.27,0,0,0-.09-0.19c0-.06,0-0.09.14-0.09l0.09,0Zm0,0.65c-0.22.06-.33,0-0.33-0.19h0.21C253.54,196.31,253.58,196.38,253.58,196.5Zm-0.09,0a0.24,0.24,0,0,0-.09.23c-0.06.06-.11,0.06-0.14,0S253.34,196.52,253.49,196.55Zm0-1.16c0.12,0.06.15,0.14,0.07,0.23a0.72,0.72,0,0,1-.21.19,0.49,0.49,0,0,1,0-.26Zm0-4.47a0.59,0.59,0,0,0,.61-0.09h0l0.09-.3a0.48,0.48,0,0,0,0-.35,0.33,0.33,0,0,0-.14,0,0.32,0.32,0,0,1-.14,0,0.24,0.24,0,0,1,.12.19,0.41,0.41,0,0,0,.12.23,0.46,0.46,0,0,1-.28.12A0.37,0.37,0,0,0,253.54,190.91Zm0.37,0.88a0.37,0.37,0,0,1-.19.56A1,1,0,0,1,253.91,191.8Zm0.09,1.4a0,0,0,0,1,0,0c0,0.06,0,.12-0.09.16a0.18,0.18,0,0,1-.23,0c0-.06,0-0.09.14-0.09S254,193.26,254,193.2Zm0-.65a0.27,0.27,0,0,0,.09-0.26,1.11,1.11,0,0,1,0-.35,0.45,0.45,0,0,1,.14-0.33q0.23,0.09.09,0.28a0.62,0.62,0,0,0-.14.37,0.09,0.09,0,0,0,0,.07,0.1,0.1,0,0,1,0,.07l-0.09.19a1.1,1.1,0,0,0-.09.4c0,0.11-.08.16-0.23,0.16Zm0-11-0.09.09a0.41,0.41,0,0,1,0-.19c0-.06.06-0.08,0.09,0a0.13,0.13,0,0,0,0,.09v0Zm0.28,9.45a0.5,0.5,0,0,1-.19.23C254.1,191,254.16,190.93,254.28,191Z" transform="translate(-218.71 -168.61)"/><path class="cls-1" d="M269.09,189c0-.15.08-0.07,0.14,0.26a7.65,7.65,0,0,1,.09,1.35,14.51,14.51,0,0,1-.14,1.91,5.93,5.93,0,0,1-.56,1.89,4.88,4.88,0,0,0,1.35-.23l0.61-.23a5.62,5.62,0,0,0,.84-0.26l0.84-.35,1-.37,0.7-.28,0.91-.37a3.94,3.94,0,0,0,.77-0.42l1.07-.75,0.09,0L277,191a1,1,0,0,0,.23-0.19q0.19-.14.49-0.33l0.61-.35,0.54-.3a0.52,0.52,0,0,0,.23-0.19l0.19,0.42c0.09-.09.14-0.11,0.14,0a0.76,0.76,0,0,1-.12.3q-0.12.21-.33,0.51a2.66,2.66,0,0,1-.49.54l-0.56.33a2.36,2.36,0,0,0-.4.4,1.87,1.87,0,0,1-.35.35,0.71,0.71,0,0,0-.21.19c-0.08.09-.13,0.12-0.16,0.09a0.26,0.26,0,0,0-.14.21c0,0.08-.06.1-0.19,0.07a1.2,1.2,0,0,0-.4.4,1.12,1.12,0,0,1-.44.4,0.74,0.74,0,0,0-.19.14q-0.09.09-.14,0a0.53,0.53,0,0,1-.14.09l-0.16.09-0.16.09L273,195a2.15,2.15,0,0,1-.47.26l-0.54.23-0.63.26a0.25,0.25,0,0,1-.23.07,1.74,1.74,0,0,0-.47,0,1.61,1.61,0,0,0-.37.21,1.31,1.31,0,0,1-.42.21q-0.75.09-1.42,0.21a2.16,2.16,0,0,0-.91.3q-0.14.23-.21,0.33a0.58,0.58,0,0,1-.14.14,0.35,0.35,0,0,0-.12.14l-0.19.33q-0.09-.14-0.07-0.07a0.7,0.7,0,0,1,0,.21,2.44,2.44,0,0,1-.44.75,4.45,4.45,0,0,0-.49.65,0.45,0.45,0,0,0-.26.16c-0.11.11-.16,0.15-0.16,0.12a0.88,0.88,0,0,1-.56.47,0.89,0.89,0,0,0-.56.33c-0.06-.06-0.1-0.06-0.12,0s-0.05.06-.12,0a0.33,0.33,0,0,1-.28.19,8.33,8.33,0,0,1-3,.23l0,0a0.23,0.23,0,0,0-.23,0,0.52,0.52,0,0,1-.23,0l-0.3-.23a0.81,0.81,0,0,0-.35-0.14,2.18,2.18,0,0,1-1-1.26,0.54,0.54,0,0,0-.16-0.28,0.21,0.21,0,0,1,0-.33,1.49,1.49,0,0,1-.26-0.72,1.59,1.59,0,0,1,.16-1,7.39,7.39,0,0,1,.42-1.86q0.37-.84.61-1.33l0.44-.91a1.22,1.22,0,0,1,.26-0.42c0,0.06,0,0,.07-0.12a0.77,0.77,0,0,1,.16-0.3,11.77,11.77,0,0,1,.79-1.26,10.64,10.64,0,0,1,1-1.16,9.83,9.83,0,0,1,1-.88,2.45,2.45,0,0,1,.79-0.47l0.84-.51a0.71,0.71,0,0,0,.42,0l0.23-.09a0.39,0.39,0,0,1,.16,0,0.28,0.28,0,0,1,.16.19H266s0,0,.09,0,0.09,0,.09,0a0.27,0.27,0,0,1,.28.12,0.15,0.15,0,0,0,.14.12c0,0.06,0,.07,0,0s0.07-.05.07,0a0.61,0.61,0,0,1,.47-0.07l0.28,0.16c0.06,0,.06.07,0,0.12s-0.06.09,0,.12,0.22,0,.19-0.14a1.13,1.13,0,0,1,.58.33,2.67,2.67,0,0,0,.58.47,0.11,0.11,0,0,0,0,.14,0.33,0.33,0,0,0,.23.14h0.09l0-.14-0.28-.14Q268.76,188.73,269.09,189Zm-4.24,7.22a2.09,2.09,0,0,1-1.42-1q-0.44-.79-0.77-1.44a1.28,1.28,0,0,0-.37.3,3.37,3.37,0,0,1-.42.4l0,0a51.16,51.16,0,0,0-.09.19v0.09h0a1.74,1.74,0,0,0-.42.74l-0.19.54a1.32,1.32,0,0,0-.09.44,4.35,4.35,0,0,0-.12.86,9,9,0,0,0,0,.93,2.68,2.68,0,0,0,.14.77,0.5,0.5,0,0,0,.35.37l0.26,0,0.44,0,0.44-.07a1.35,1.35,0,0,0,.3-0.09,8.5,8.5,0,0,0,1.21-.7,2.67,2.67,0,0,0,.56-0.54l0.35-.49a2.43,2.43,0,0,1,.54-0.51l0.19-.61a2.52,2.52,0,0,0-.49,0A0.71,0.71,0,0,1,264.85,196.17Zm-3-1.72a0.13,0.13,0,0,0,0,.09v0a0,0,0,0,1,0,0,0.13,0.13,0,0,0,0,.09v0A0.52,0.52,0,0,1,261.82,194.45Zm5.08-5.26a2.41,2.41,0,0,0-.49.37q-0.3.28-.63,0.63l-0.63.7a6.21,6.21,0,0,0-.49.63s0,0,0,0,0,0,0,0a0.17,0.17,0,0,1-.16.09,0.29,0.29,0,0,0-.21.09,0.24,0.24,0,0,0-.07.19,0.06,0.06,0,0,0,0,0l0,0a0.37,0.37,0,0,1,0,.21,5.8,5.8,0,0,0,.19.65,4.09,4.09,0,0,0,.4.84,3,3,0,0,0,.61.72,0.91,0.91,0,0,0,.81.21q0.14-.42.35-1.28t0.35-1.75a8.64,8.64,0,0,0,.12-1.61A0.82,0.82,0,0,0,266.9,189.19Z" transform="translate(-218.71 -168.61)"/><path class="cls-1" d="M283.89,174c0.06,0.06.09,0.08,0.07,0s0.05,0,.21,0a0.19,0.19,0,0,1,.12,0,0.18,0.18,0,0,0,.12,0,0.2,0.2,0,0,0,.19,0,0.41,0.41,0,0,1,.19,0,0.32,0.32,0,0,1,.23.09,0.57,0.57,0,0,0,.23.14h0.14l0.14,0.14a0.58,0.58,0,0,0,.23.14,0.3,0.3,0,0,1,.19.14,1,1,0,0,1,.28.56,2.11,2.11,0,0,1,0,.74,0.25,0.25,0,0,0-.09.16,0.38,0.38,0,0,1,0,.16,0.21,0.21,0,0,1-.12.12,0.21,0.21,0,0,0-.12.12,4.11,4.11,0,0,0-.42.61,6.43,6.43,0,0,0-.33.65l-0.42.47v0.37a0.12,0.12,0,0,1-.12,0,0.13,0.13,0,0,0-.12,0,0.15,0.15,0,0,0-.09.14,0.42,0.42,0,0,1,0,.19,11.51,11.51,0,0,0-.51,1.07,5.06,5.06,0,0,0-.33,1.12,0.36,0.36,0,0,0-.33.33,0.48,0.48,0,0,0,0,.28l-0.19.37a1.61,1.61,0,0,0-.14.42,4.77,4.77,0,0,0-.26.49,5.37,5.37,0,0,0-.21.54l-0.19.33a0.19,0.19,0,0,1,0,.14,0.19,0.19,0,0,0,0,.14l-1.86,4.19-0.28.7-0.23.42-0.23.42s0,0,0,0,0,0,0,0a5.38,5.38,0,0,1-.49,1.58q-0.35.7-.72,1.4l-1,2-0.19.35a1.29,1.29,0,0,0-.14.4l0,0.19-0.19.28q0.51-.56,1.12-1.12l1.21-1.12,0.23-.33,0.33-.28a13.93,13.93,0,0,0,1.14-1,11.8,11.8,0,0,1,1.09-.93,12.6,12.6,0,0,1,1.16-.86q0.6-.39,1.21-0.86a0.71,0.71,0,0,0,.19-0.14,0.26,0.26,0,0,1,.14-0.09h0.23a1.33,1.33,0,0,0,.47-0.26,1,1,0,0,1,.51-0.21,0.46,0.46,0,0,1,.37,0l0.33,0.16a1.77,1.77,0,0,0,.37.14,1,1,0,0,0,.42,0,0.15,0.15,0,0,1,0,.19q0.23,0,.26,0a0.79,0.79,0,0,0,.12.23,0.43,0.43,0,0,1,0,.33,1.73,1.73,0,0,1,0,.65c-0.06.28-.12,0.57-0.16,0.88a1.46,1.46,0,0,1-.26.7c0.06,0,.08,0,0,0.07l-0.09.21a0.45,0.45,0,0,0-.09.23,0.77,0.77,0,0,1,0,.23l0,0.65q-0.09.88-.12,1.51a4.07,4.07,0,0,0,.16,1.28l0.16,0.61a0.78,0.78,0,0,0,.3.51,0.21,0.21,0,0,0,.23,0,1,1,0,0,1,.33,0,0.53,0.53,0,0,0,.3.09h0.3a4.78,4.78,0,0,0,1.75-.63q1-.53,1.51-0.91L292,196a0.33,0.33,0,0,0,.09-0.12,0.16,0.16,0,0,1,.09-0.07,0.17,0.17,0,0,1,.16-0.07,0.21,0.21,0,0,0,.16,0,0.53,0.53,0,0,0,.35-0.14,0.94,0.94,0,0,1,.3-0.19l0.19-.16,0.28-.21,0.49-.37,0.81-.65s0,0,0,0a0.33,0.33,0,0,0,.14-0.19,0.26,0.26,0,0,1-.14.09l0.07-.16a0.9,0.9,0,0,1,.26-0.26l0,0,0-.09,0.19-.19a0.64,0.64,0,0,1,.33-0.14,0.51,0.51,0,0,1,.42-0.23,0.4,0.4,0,0,0,.14-0.28,2,2,0,0,1,.51-0.09,0.5,0.5,0,0,0,.37-0.28c0-.06,0-0.08,0,0s0,0,0,0l0,0v0c0.06-.06.11-0.07,0.14,0s0.06,0.05.09,0,0-.09-0.07-0.09-0.05,0,0-.09h0.09a0.18,0.18,0,0,0,0-.16c0-.08,0,0,0.07.21,0.37-.12.59-0.06,0.65,0.19v0a0.56,0.56,0,0,1-.12.37,3.23,3.23,0,0,0-.21.28v0.09a0.68,0.68,0,0,1-.14.3,0.76,0.76,0,0,1-.23.26,0.38,0.38,0,0,1-.14.28,0.73,0.73,0,0,0-.19.14,1.09,1.09,0,0,0-.16.21,0.6,0.6,0,0,1-.3.21,4.68,4.68,0,0,0-.47.44l-0.16.19-0.21.19-0.51.44c-0.06-.06-0.13,0-0.21.12a1.43,1.43,0,0,1-.21.3,6.66,6.66,0,0,0-.61.42l-0.44.37a4.74,4.74,0,0,1-.44.35q-0.23.16-.56,0.35c-0.06,0-.12,0-0.16.09a0.89,0.89,0,0,1-.16.23h-0.14v-0.14a0.08,0.08,0,0,1-.09,0s0,0,0,.07,0,0.06,0,.09a0.14,0.14,0,0,1,0,.19h-0.09c-0.06-.06-0.08-0.11,0-0.14a0.13,0.13,0,0,0,0-.09,0.61,0.61,0,0,0-.3.21,0.67,0.67,0,0,1-.21.21,0.22,0.22,0,0,0,.16-0.07s0.07,0,.07,0a0.46,0.46,0,0,1-.09.23l-0.14.14a0.49,0.49,0,0,1-.19.09v-0.14a0.3,0.3,0,0,0-.35.19,0.41,0.41,0,0,1-.4.23s0,0,0,0,0-.05,0-0.12a0.41,0.41,0,0,1-.19,0,0.27,0.27,0,0,0-.19.09c0,0.06.06,0.08,0.09,0s0,0,0,0a1.8,1.8,0,0,1-.58.35,6,6,0,0,1-.88.28,7.47,7.47,0,0,1-.93.16,1.49,1.49,0,0,1-.67,0,0.09,0.09,0,0,1-.07,0,0.19,0.19,0,0,0-.12,0,1.72,1.72,0,0,0-.42,0,4.52,4.52,0,0,1-1.09-.3,5.61,5.61,0,0,1-.91-0.49s0,0,.09,0a0.12,0.12,0,0,0,0-.16q-0.09-.07-0.14.07a1.27,1.27,0,0,1-.37-0.51,1.79,1.79,0,0,0-.37-0.56,0.33,0.33,0,0,0-.19-0.37,7.7,7.7,0,0,1-.16-2.54,19.17,19.17,0,0,1,.44-2.86,1.07,1.07,0,0,0-.56.3l-0.42.44a0.82,0.82,0,0,1-.37.23l-0.23.21a1.19,1.19,0,0,0-.23.26q-1.58,1.63-3.31,3.21a21.92,21.92,0,0,0-3.07,3.49l-0.51.28a1.09,1.09,0,0,0-.14.16,0.35,0.35,0,0,1-.14.12,1,1,0,0,1-.37,0,1.29,1.29,0,0,0-.42,0h-0.09a0.31,0.31,0,0,1-.19,0,0.18,0.18,0,0,0-.14,0l0-.19a1.67,1.67,0,0,0-.47-0.12,0.82,0.82,0,0,1-.37-0.12,1.2,1.2,0,0,1-.19-0.75v-0.19l0.14-.37,0.09-.37s0,0,0,0,0,0,0-.09l0.09-.14a20.75,20.75,0,0,1,.7-2.09q0.56-1.49,1.23-2.93t1.33-2.89q0.88-2,1.77-3.93t1.68-3.89a0.3,0.3,0,0,0,.23-0.19l0.42-1q0.51-1.26,1-2.56a23.12,23.12,0,0,1,1.16-2.51,5.25,5.25,0,0,0,.51-1A10.8,10.8,0,0,0,283.89,174Zm1.58,24.86a0.31,0.31,0,0,1,.19.07,0.31,0.31,0,0,0,.19.07,0.2,0.2,0,0,0-.14-0.16A0.18,0.18,0,0,0,285.48,198.88Zm6.52-.51a0.64,0.64,0,0,1,0-.14c0-.06,0-0.09,0-0.09a0.17,0.17,0,0,0-.09.16C291.9,198.37,291.93,198.39,292,198.36Zm2.47-2.7q0.09,0,.23-0.26a1.29,1.29,0,0,0,.14-0.4,0.5,0.5,0,0,0-.26.3Zm0.51-1.77a0.14,0.14,0,0,1,0,.09s0,0,0,0S295,193.92,295,193.89Zm0.56,0.93a0.5,0.5,0,0,0,.37-0.14l-0.09-.09c0,0.06,0,.09-0.07.09s-0.12,0-.12,0Z" transform="translate(-218.71 -168.61)"/><path class="cls-1" d="M295.21,195.85a0.23,0.23,0,0,0,.12-0.19,0.37,0.37,0,0,0,0-.23,1.72,1.72,0,0,0,.12-0.47,0.37,0.37,0,0,1,.26-0.33c0.09-.09.12-0.17,0.07-0.23s0-.11.12-0.14a3.8,3.8,0,0,0,.16-0.37,0.91,0.91,0,0,1,.21-0.33,16.6,16.6,0,0,1,1-1.89q0.58-1,1-1.93a6.63,6.63,0,0,0,.42-0.56,1.45,1.45,0,0,0,.23-0.61H299a0.45,0.45,0,0,1,.63-0.35,8.33,8.33,0,0,1,1,.3,0.42,0.42,0,0,1,.28.26,1.28,1.28,0,0,1,0,.35,0.13,0.13,0,0,0-.07.16,0.32,0.32,0,0,1,0,.21,3.62,3.62,0,0,0-.47,1.07,3.63,3.63,0,0,1-.47,1.07,0.34,0.34,0,0,1-.12.14,0.35,0.35,0,0,0-.12.14,2.17,2.17,0,0,0-.16.54,2.19,2.19,0,0,1-.3.72q-0.37.75-.65,1.4T298,196a10.81,10.81,0,0,1-.3,1.26,1.56,1.56,0,0,0,.21,1.21,10.24,10.24,0,0,0,1.89-.67q0.81-.39,1.7-0.86l1.26-.93,0.37-.23,1.49-1.12,1.26-1a4.87,4.87,0,0,1,.47-0.3,4.9,4.9,0,0,0,.47-0.3l0.75-.58,0.75-.54a0.67,0.67,0,0,1,.21-0.21l0.3-.16,0.33-.23a0.6,0.6,0,0,1,.44-0.33,0.58,0.58,0,0,0,.44-0.42c0.12,0,.19,0,0.19-0.09,0.15,0.06.21,0.14,0.16,0.23s0,0.17.12,0.23a0.41,0.41,0,0,0-.16.23,1,1,0,0,0-.07.23q0.19,0.09.23-.21c0-.2.09-0.29,0.19-0.26a1.85,1.85,0,0,1,0,.26,0.27,0.27,0,0,1-.09.21q0.23,0.09.09,0.26a0.23,0.23,0,0,0,0,.3,0.68,0.68,0,0,1-.14.12,0.29,0.29,0,0,0-.09.16c-0.06,0-.07,0,0-0.09s0-.09-0.12-0.09l-0.09.16a0.89,0.89,0,0,0-.09.26q-0.09,0-.07-0.07a0.39,0.39,0,0,0,0-.12c-0.16,0-.23,0-0.23.14a0.42,0.42,0,0,0-.28.28,1,1,0,0,1-.19.37c-0.09,0-.12,0-0.09,0s0,0-.09,0a0.29,0.29,0,0,1-.07.26,3.52,3.52,0,0,1-.26.4c-0.09.12-.16,0.23-0.21,0.3a0.21,0.21,0,1,1,0-.07,0.6,0.6,0,0,0-.42.19,4.06,4.06,0,0,0-.42.33l-0.56.56-0.49.37-0.44.37-0.09,0a0.09,0.09,0,0,1,0,.07,0.18,0.18,0,0,0,0,.12c0-.06-0.08-0.07-0.14,0a0.09,0.09,0,0,0,0,.16h-0.14a1.3,1.3,0,0,1-.19.33,1.49,1.49,0,0,1-.51.47v-0.19c-0.06,0-.09,0-0.09,0a0.14,0.14,0,0,1-.09.12h0.14a0.25,0.25,0,0,1-.14.21l-0.23.07s0,0,0,0,0,0,0,0l-0.21.23a1.19,1.19,0,0,1-.26.23c-0.06-.09-0.12-0.11-0.16,0a0.45,0.45,0,0,1-.16.14l-0.23.09-0.26.19a0.81,0.81,0,0,1-.35.14,0.41,0.41,0,0,0,0,.19,0,0,0,0,1,0,0s0,0-.09,0l-0.23.21a0.82,0.82,0,0,1-.37.16,1,1,0,0,1-.54.47l-0.72.28a3.58,3.58,0,0,1-1.12.51l-1.12.21a4.07,4.07,0,0,1-1.3,0q-0.47-.09-0.91-0.14a1.68,1.68,0,0,1-.67-0.19,2,2,0,0,1-.54-0.56l-0.35-.56a0.16,0.16,0,0,1-.14-0.14,0.38,0.38,0,0,0-.14-0.23s0,0,0,0,0,0,0-.09a0.26,0.26,0,0,1-.14.09,0.3,0.3,0,0,1,.07-0.37,0.26,0.26,0,0,0,0-.37,0.54,0.54,0,0,0-.09.37,0.35,0.35,0,0,1-.09-0.26,0.16,0.16,0,0,1,.19-0.16,1.5,1.5,0,0,1,.19-0.65,0.19,0.19,0,0,0-.14,0,0.71,0.71,0,0,1,.19-0.37,0.5,0.5,0,0,0,.14-0.37,0.06,0.06,0,0,0-.07.09c0,0.06,0,.09,0,0.09a0.66,0.66,0,0,1,.19-0.61s0,0,0-.09a0.35,0.35,0,0,1-.09.21A0.14,0.14,0,0,0,295.21,195.85Zm7.73-10.66c-0.06,0-.08.05,0,0.07s0,0.05,0,.12a1.14,1.14,0,0,0-.35.47,0.37,0.37,0,0,1-.44.23,0.76,0.76,0,0,0-.37.33,0.48,0.48,0,0,1-.28,0l-0.14-.14a0.25,0.25,0,0,0-.28.14,4.24,4.24,0,0,1-.68-0.28q-0.26-.14-0.58-0.28a2.87,2.87,0,0,1,.12-0.81,0.51,0.51,0,0,1,.68-0.3,0.26,0.26,0,0,1,.14-0.09,0.13,0.13,0,0,0,.09,0,3,3,0,0,1,1,.23,3.09,3.09,0,0,0,1,.23C302.69,185.13,302.75,185.19,302.94,185.19Zm1.3,12a0.31,0.31,0,0,0,.19-0.07c0.06,0,.06-0.1,0-0.16Zm5-4.28a0.45,0.45,0,0,0-.28.19,0.2,0.2,0,0,0,0,.28,0.4,0.4,0,0,1,.14-0.28A0.27,0.27,0,0,0,309.22,192.87Zm0.47-.23s0,0,0,0Z" transform="translate(-218.71 -168.61)"/><path class="cls-1" d="M322.49,194.31a0.16,0.16,0,0,1-.07.14s0,0,0,0a10.09,10.09,0,0,1-.72.86,4.26,4.26,0,0,0-.63.81,1.53,1.53,0,0,0-.37.09A1.07,1.07,0,0,1,321,196l0.35-.23a0.87,0.87,0,0,1,.09-0.3l0.19-.4a0.77,0.77,0,0,0-.23.33,1.58,1.58,0,0,1-.23.37,1.77,1.77,0,0,1-.56.4,1.17,1.17,0,0,0-.51.49,1.58,1.58,0,0,0-.77.7,1.17,1.17,0,0,1-.81.61,0.3,0.3,0,0,1-.09.16,0.66,0.66,0,0,0-.14.12,0.21,0.21,0,0,1,0-.16s0-.07,0-0.07l-0.42.37a1.16,1.16,0,0,0-.4.26,0.54,0.54,0,0,1-.4.16l0,0a0.64,0.64,0,0,0-.23.16l-0.07.12-0.07.12a0.39,0.39,0,0,1-.23.12c-0.06,0-.09,0-0.09,0a0.76,0.76,0,0,0-.35.21,0.54,0.54,0,0,1-.4.16,0.08,0.08,0,0,1,.09-0.09,0.31,0.31,0,0,0-.37.14h-0.09l-1.21.65q-0.37.14-.84,0.28a5.27,5.27,0,0,1-.84.19,2.33,2.33,0,0,1-1.49.16,7.09,7.09,0,0,1-1.58-.54,10.14,10.14,0,0,0-1-.51,1.93,1.93,0,0,1-.65-0.44,1.43,1.43,0,0,1-.33-0.61,4.09,4.09,0,0,1-.09-1,0.12,0.12,0,0,1,0-.12,0.12,0.12,0,0,0,0-.12,7,7,0,0,1,.19-1.86q0.23-1.07.47-2a1.14,1.14,0,0,0,.09-0.42,0.62,0.62,0,0,1,.14-0.37,19.42,19.42,0,0,1,.61-2q0.37-1,.79-2a1.93,1.93,0,0,0,.09-0.26s0,0,0,0l0.19-.33,0.91-1.82a11,11,0,0,0,.77-1.91q-0.19.14-.14,0.07s0-.07-0.19-0.07l-0.63.21a1.73,1.73,0,0,1-.63.12l-0.65.19a3.36,3.36,0,0,1-.61.14,6,6,0,0,1-.7.09h-0.16l-0.14,0-0.67.19a0.92,0.92,0,0,0-.67.09,1.37,1.37,0,0,1-.77.14l-0.12-.07a0.19,0.19,0,0,0-.12,0,0.7,0.7,0,0,1-.58,0,0.93,0.93,0,0,1-.35-0.35,0.51,0.51,0,0,0-.09-0.51,0.75,0.75,0,0,1-.19-0.47l0.19,0.14A10.68,10.68,0,0,0,306,184l1.54-.54q0.84-.28,2-0.56a28.45,28.45,0,0,1,3.07-.51q0.93-1.91,1.91-3.49t2-3.26v-0.23a0.16,0.16,0,0,1,.21,0,0.15,0.15,0,0,0,.21,0q0,0.14.07,0.16a0.12,0.12,0,0,1,.12.12,3,3,0,0,1,.56.19,2.47,2.47,0,0,1,.61.37,1.74,1.74,0,0,1,.42.49,0.55,0.55,0,0,1,0,.54l-0.42.33a0.41,0.41,0,0,0,0,.19,2.27,2.27,0,0,1-.44.77,3.44,3.44,0,0,0-.49.72,4.56,4.56,0,0,0-.35.65,7.29,7.29,0,0,1-.35.7,1.88,1.88,0,0,1-.51.68,1.11,1.11,0,0,0-.37.72q0.79-.09,1.49-0.14t1.49,0a5.49,5.49,0,0,1,1.3-.19h1.16l0.23,0a1.45,1.45,0,0,0,.82,0,1.36,1.36,0,0,1,.86,0,1.12,1.12,0,0,1,.3,0,0.66,0.66,0,0,0,.35,0s0,0,0,0a0.41,0.41,0,0,1,.19,0l0,0a0.48,0.48,0,0,0,.42,0l-0.16-.12a1.57,1.57,0,0,1,.35.12,7.79,7.79,0,0,1,.93.07,1.45,1.45,0,0,1,.93.49,0.18,0.18,0,0,1,0,.16,0.31,0.31,0,0,0,0,.21,0.13,0.13,0,0,1-.09,0s0,0,0,.09l0.07,0.07,0.16,0.07a0.38,0.38,0,0,1-.28.09,0.55,0.55,0,0,0,.28.33,0.29,0.29,0,0,1-.21.09,0.17,0.17,0,0,0-.16.09,0.41,0.41,0,0,1-.19,0,1.81,1.81,0,0,1-.58,0,1,1,0,0,0-.63.14,0.33,0.33,0,0,0-.28-0.09,0.19,0.19,0,0,1-.19,0c0-.06,0-0.09,0-0.07s0,0,0-.07a0.28,0.28,0,0,0-.23.07l-0.07.12a0,0,0,0,1-.07,0,1,1,0,0,1-.19-0.16l-0.19.09,0,0h0c-0.06,0-.09,0-0.07,0s0,0,0-.07a0.28,0.28,0,0,0-.14.14,0.23,0.23,0,0,0-.35-0.07c-0.17.08-.21,0-0.12-0.12-0.06,0-.1.05-0.12,0.16s-0.1.12-.26,0a0.24,0.24,0,0,1,.12-0.16s0,0,0-.07a0.37,0.37,0,0,0-.14,0,0.3,0.3,0,0,0-.14.19v-0.14a0.17,0.17,0,0,0-.19.19v-0.14c-0.09-.06-0.16-0.08-0.19,0a0.27,0.27,0,0,1-.19,0q-0.09-.09,0-0.07a0.19,0.19,0,0,0,.19-0.07h-0.23a0.19,0.19,0,0,0-.19.09,0.34,0.34,0,0,0-.47,0q0,0.09.16,0t0.16,0a0.49,0.49,0,0,1-.19.09l-0.26.07a0.27,0.27,0,0,1-.16,0s0-.05,0-0.12h-0.19v0a0,0,0,0,0,0,0v0a0.07,0.07,0,0,1-.07,0s0,0-.07,0,0,0,0,0,0,0,0,0a0.28,0.28,0,0,0-.19.16s0,0-.09-0.07-0.09-.18-0.28-0.16a1.78,1.78,0,0,0-.51.12v-0.09a2.31,2.31,0,0,1-.35.19,0.33,0.33,0,0,1-.4-0.09,0.37,0.37,0,0,1,.14,0,0.14,0.14,0,0,0,.09,0c0-.06,0-0.09,0-0.09a0,0,0,0,1,0,0,0.19,0.19,0,0,0-.14,0,0.52,0.52,0,0,1-.14.09s0,0,0-.09a0,0,0,0,1,0,0c-0.16,0-.22,0-0.19,0s-0.09.06-.09,0.19a0.38,0.38,0,0,1-.09.28l-0.4,0a3.65,3.65,0,0,1-.49,0c0-.06,0-0.09.07-0.07s0.07,0,.07-0.07,0,0,0,0,0,0,0,0h0l-0.19,0-0.19,0c-0.06.16-.15,0.21-0.26,0.16a0.21,0.21,0,0,0-.26,0v0a0.19,0.19,0,0,0-.19.09,0.13,0.13,0,0,0,.19,0c0,0.06.05,0.08,0.07,0s0,0,0,0,0,0.09-.07.09a0.26,0.26,0,0,0-.16.09,0.37,0.37,0,0,1-.23-0.07,0.19,0.19,0,0,0-.23,0,3.59,3.59,0,0,0-.54,0l-0.54.09a0.45,0.45,0,0,0-.23.21l-0.14.3a21.14,21.14,0,0,1-.93,2,18.39,18.39,0,0,0-1,2.19c-0.09.28-.16,0.48-0.21,0.61a1.85,1.85,0,0,1-.14.3,1.91,1.91,0,0,0-.14.3q-0.07.19-.21,0.65a6.86,6.86,0,0,0-.79,2.07q-0.28,1.23-.51,2.49a8.6,8.6,0,0,1-.23.84,4.05,4.05,0,0,0-.19.88,4.69,4.69,0,0,1-.26,1.28,1.43,1.43,0,0,0,.16,1.23l0,0s0,0,.14,0a5.59,5.59,0,0,0,1.91-.42,10.43,10.43,0,0,0,1-.35q0.53-.21,1-0.35,0.09-.09.12-0.07s0,0,0-.07l0.28-.07a0.24,0.24,0,0,0,.19-0.21l0.44-.16a1.2,1.2,0,0,0,.28-0.16,1.46,1.46,0,0,1,.26-0.16,3.54,3.54,0,0,1,.42-0.16v-0.19q0.19,0.14.56-.28a0.14,0.14,0,0,1,.09,0l1-.61q0.53-.33,1-0.65a2.18,2.18,0,0,0,.75-0.47q0.51-.42,1-0.93t1-1l0.51-.54a0.13,0.13,0,0,0,.09,0,1.81,1.81,0,0,1,.07-0.33,0.07,0.07,0,0,1,0,0l0,0,0.16-.21c0-.09,0-0.14,0-0.14l0.19-.14a1.47,1.47,0,0,0,.14-0.19,0.33,0.33,0,0,0,.37-0.33,1.08,1.08,0,0,1,.44.21,0.13,0.13,0,0,0,.21,0,0.11,0.11,0,0,0,.09.12l0.19,0c0,0.06,0,.09,0,0.09s0,0,0,0,0,0.08-.12.14-0.13.11,0,.14a0.71,0.71,0,0,1-.09.28,0.28,0.28,0,0,1,.14.14,4.69,4.69,0,0,0-.79,1.07h0a0.13,0.13,0,0,1-.09,0c-0.12.12-.19,0.17-0.19,0.14l-0.28.23V194a0.25,0.25,0,0,0-.09.16,0.14,0.14,0,0,1-.09.12,0.19,0.19,0,0,0,0,.14v0A0,0,0,0,0,322.49,194.31Zm-6.7-10.52a0,0,0,0,1,0,0,0,0,0,0,0,0,0C315.75,183.64,315.72,183.67,315.79,183.79Zm0.14,0c0.06,0.06.11,0.08,0.14,0a0.14,0.14,0,0,1,.09,0,0.08,0.08,0,0,1,0-.07s0-.05,0-0.12a0.11,0.11,0,0,1-.09.12A0.3,0.3,0,0,0,315.93,183.74Zm1.4-.09c-0.06,0-.06,0,0,0v0Zm0,0,0.09-.09A0.08,0.08,0,0,1,317.32,183.6Zm2,13.55,0.26-.23a0.83,0.83,0,0,0,.21-0.28l-0.35.23C319.3,197,319.26,197.06,319.32,197.15Zm0.28-13.59c-0.12,0-.18,0-0.16,0l0.12-.12C319.56,183.53,319.57,183.56,319.6,183.56Zm0.33,12.29a0.15,0.15,0,0,0,.19,0,0.15,0.15,0,0,0,0-.19,0.67,0.67,0,0,0-.12.14A0.25,0.25,0,0,1,319.93,195.85Zm0,0.51a0.18,0.18,0,0,0,.23,0,0.72,0.72,0,0,1,.14-0.19,0.37,0.37,0,0,1,0-.23c-0.06,0-.09,0-0.09.14l0,0.09-0.19.12Zm0,0.19c0,0.06.08,0.07,0.16,0a0.09,0.09,0,0,0,0-.16,0.09,0.09,0,0,1-.12.07S320,196.49,320,196.55Zm0.47,0.19a0.7,0.7,0,0,1,.3-0.3,1.77,1.77,0,0,0,.35-0.21v0a1.71,1.71,0,0,0-.35.23Zm0.09-.88s0,0,0-.09A0.14,0.14,0,0,1,320.54,195.85Zm0.14-12.38a0,0,0,0,1,0,0h0.09c0.06,0.09.07,0.13,0,.12A0.08,0.08,0,0,1,320.67,183.46Zm0.47,12.71,0,0v0h0Zm0.28-.42a0.41,0.41,0,0,1,.19-0.42,0.52,0.52,0,0,0,.23-0.28c0.06,0.06,0,.18-0.12.35Zm2-2.42s0,0,.09-0.14v0l-0.09,0a1.72,1.72,0,0,1-.21.26l-0.21.21v-0.14a0.61,0.61,0,0,0-.14.47l0.09-.09h0l0-.19a0.19,0.19,0,0,1,.14,0,0.27,0.27,0,0,1,.19-0.23l0.14-.23v0Zm-0.37.47c-0.06,0-.09,0-0.07,0s0,0.07,0,.07Zm0.7-11a0.15,0.15,0,0,1-.21,0,0.16,0.16,0,0,0-.21,0,0.89,0.89,0,0,0,.28.07C323.69,182.9,323.73,182.86,323.7,182.77Zm-0.33,10.66a0,0,0,0,1,0,0A0,0,0,0,0,323.38,193.43Zm0,0a0.26,0.26,0,0,0,.09-0.14l-0.09.09v0Z" transform="translate(-218.71 -168.61)"/><path class="cls-1" d="M357.83,169.17a0.46,0.46,0,0,0,.21,0,0.47,0.47,0,0,1,.21,0l0.19,0.14h0.19l0.16,0a0.21,0.21,0,0,0,.16,0,0.31,0.31,0,0,0,.23.09,0.32,0.32,0,0,1,.23.09l0.14,0.19a0.1,0.1,0,0,0,.14,0s0.09,0,.19,0a0.26,0.26,0,0,1,.19.12,0.56,0.56,0,0,0,.19.16h0.19a1.24,1.24,0,0,1,.44.19,0.86,0.86,0,0,0,.49.14,8.31,8.31,0,0,0,1,.7,3,3,0,0,1,.93.84,0.92,0.92,0,0,1,.26.28l0.21,0.33a8,8,0,0,1,.75,1.21,1.41,1.41,0,0,1,.37.61,6,6,0,0,1,.37,1.61,4.38,4.38,0,0,1-.14,1.7l-0.09.21-0.09.26a2,2,0,0,1-.09.23l-0.09.19q-0.23.47-.47,0.86a1.81,1.81,0,0,1-.61.63,2.84,2.84,0,0,1-.63,1.14,8.83,8.83,0,0,0-.81,1l-0.19.33-0.33.23-1.86,1.63-0.23.14-0.23.09L359,185a7.38,7.38,0,0,1-1.3.88q-0.7.37-1.44,0.7a2.38,2.38,0,0,0-.88.51,3.67,3.67,0,0,1-.68.3,1.94,1.94,0,0,0-.63.35,0.19,0.19,0,0,0,0,.14,0.08,0.08,0,0,1-.09.09,0.22,0.22,0,0,0-.12-0.12l-0.16-.07a0.35,0.35,0,0,1,.19-0.16c0.06,0,.08-0.07,0-0.16a0.08,0.08,0,0,0-.09,0,0.16,0.16,0,0,1-.14,0,0.21,0.21,0,0,0-.09.23h-0.09a0.19,0.19,0,0,0,0,.14,4.41,4.41,0,0,1-.77.47,7.44,7.44,0,0,0-.77.42,0.2,0.2,0,0,0-.19-0.07,0.83,0.83,0,0,0-.23.12l-1,.49a6.36,6.36,0,0,0-.86.54,0.11,0.11,0,0,0-.14,0,0.19,0.19,0,0,1-.14,0q-1.26.79-2.65,1.49a13,13,0,0,0-2.51,1.63s0.05,0,.07,0,0-.05,0,0a0.15,0.15,0,0,1-.09.14,0.09,0.09,0,0,1-.14,0,2.9,2.9,0,0,0-.51.33,4.21,4.21,0,0,1-.47.33l-0.51.35a1.29,1.29,0,0,0-.37.4,1.26,1.26,0,0,0,.23.28,1.77,1.77,0,0,0-.47.33s0,0,0,.14a0.21,0.21,0,0,1-.16,0s-0.05,0,0-.07l-0.09.09a0.52,0.52,0,0,0-.09.14s0,0,.14.09a0.19,0.19,0,0,0,0-.14,2.33,2.33,0,0,0,.93.56,3.27,3.27,0,0,1,1,.51,0.21,0.21,0,0,1,.12.12,0.21,0.21,0,0,0,.12.12,0.27,0.27,0,0,0,.09-0.19,0.19,0.19,0,0,1,0-.14,1.23,1.23,0,0,0,.23.33,0.39,0.39,0,0,0,.37.09,0.43,0.43,0,0,0,.42.3,1,1,0,0,1,.56.21,0.14,0.14,0,0,1,0,.09,0.13,0.13,0,0,0,.09.09c0.06,0,.09,0,0.07,0a0.08,0.08,0,0,1,0-.09,0.39,0.39,0,0,0,.21.16,0.82,0.82,0,0,1,.26.16,0.22,0.22,0,0,1,.12.12,0.08,0.08,0,0,0,.07.07,0.09,0.09,0,0,0,.14,0q0-.09.14,0v0.09c0.06,0,.09,0,0.09,0a0.29,0.29,0,0,0,.21.23,2.11,2.11,0,0,1,.35.14l0.51,0.19V198q0.14,0.14.19,0a0.11,0.11,0,0,0,.07.12,0.08,0.08,0,0,1,.07.07,0.06,0.06,0,0,1,0,.09s0,0,0,0,0.09,0,.09,0,0,0,.09,0a1.55,1.55,0,0,0,.35.26,3.54,3.54,0,0,1,.4.26c0.15,0,.23,0,0.23.14s-0.1.06-.12,0-0.05-.08-0.12,0a0.4,0.4,0,0,0,.16.16,0.09,0.09,0,0,1,0,.16s0,0,0-.07,0-.05,0,0-0.09,0-.07,0,0,0.06-.07.09a0.26,0.26,0,0,0-.16-0.09,0.25,0.25,0,0,1-.16-0.09,0.11,0.11,0,0,0,.09.12l0.19,0.07a0.5,0.5,0,0,0,0,.16s0.05,0.05.12,0,0-.05,0-0.07-0.05,0,0-.07a0.16,0.16,0,0,1,.21,0,0.49,0.49,0,0,0,.26.07,0.83,0.83,0,0,0,0-.35,0.51,0.51,0,0,1,.07-0.35,0.39,0.39,0,0,0,.21.12,0.42,0.42,0,0,1,.21.12s0,0,0,0,0,0,0,.09a0.5,0.5,0,0,1,.37.14,0.5,0.5,0,0,0,.37.14,0.06,0.06,0,0,0,0-.09,0.11,0.11,0,0,1,0-.14,0.18,0.18,0,0,1,.26,0,0.17,0.17,0,0,0,.26,0q-0.09.19,0,.26a0.74,0.74,0,0,0,.28.09l0.3,0a0.23,0.23,0,0,1,.19.16c0,0.06-.07.07-0.12,0s-0.09-.05-0.12,0a0.15,0.15,0,0,0,.09.14,0.19,0.19,0,0,1,.09.19,0.1,0.1,0,0,1,0,.07,0.09,0.09,0,0,0,0,.07h0.19a0.11,0.11,0,0,0,0-.14,0.11,0.11,0,0,1,0-.14c0.15,0,.2,0,0.14.14a0.47,0.47,0,0,0-.09.19,0.28,0.28,0,0,0,.28,0s0,0-.07,0,0,0,0-.09a0,0,0,0,0,0,0,0.38,0.38,0,0,0,0-.16,0.16,0.16,0,0,1,0-.12,0.61,0.61,0,0,0,0,.14,0.78,0.78,0,0,1,0,.19s0,0,0,0,0,0,0,0v0a1.52,1.52,0,0,0,.37.09,0.08,0.08,0,0,0-.09-0.09,0.08,0.08,0,0,1-.09-0.09,0.37,0.37,0,0,1,.37,0,0.36,0.36,0,0,1,.14,0,0.13,0.13,0,0,1,.09.09,0.12,0.12,0,0,1-.19,0c-0.06-.06-0.09,0-0.09.09a0.08,0.08,0,0,0,.12,0s0.07,0,.07,0,0,0.09-.07.07-0.07,0-.07.07a3.32,3.32,0,0,0,.84.19,3.32,3.32,0,0,1,.84.19,0.25,0.25,0,0,1-.21,0,0.11,0.11,0,0,0-.16,0,4.73,4.73,0,0,0,1.23.14,1.44,1.44,0,0,0,1-.33s-0.05,0-.07,0,0,0-.07,0a0.15,0.15,0,0,1,.09-0.14c0.06,0,.08-0.06,0-0.09a0.47,0.47,0,0,0-.51.14,0.86,0.86,0,0,1-.21-0.16,0.3,0.3,0,0,0-.3-0.07,0.12,0.12,0,0,0-.12,0,0.12,0.12,0,0,1-.12,0,0.12,0.12,0,0,1-.09-0.07,0.13,0.13,0,0,0-.09-0.07,0.17,0.17,0,0,0-.16-0.07,0.22,0.22,0,0,1-.16,0l0.09-.19a0.7,0.7,0,0,0,.7.12,1.36,1.36,0,0,1,.74,0,0.44,0.44,0,0,0,.19.14,0.14,0.14,0,0,0,.09,0l0.09-.09a2.24,2.24,0,0,1,.44,0,0.42,0.42,0,0,0,.3-0.09,0.32,0.32,0,0,0,0-.21,0.31,0.31,0,0,1,0-.21,1.55,1.55,0,0,1,.19.23,0.36,0.36,0,0,0,.33.14,0.08,0.08,0,0,1-.09.09,0.08,0.08,0,0,0-.09.09,0.18,0.18,0,0,0,.19.14,3.16,3.16,0,0,1-.47.86,2.61,2.61,0,0,1-.7.67,0.72,0.72,0,0,1-.28.09,0.07,0.07,0,0,0-.07,0,0.12,0.12,0,0,1-.12,0,0.9,0.9,0,0,0-.47.14,0.5,0.5,0,0,1-.47,0h-0.23a0.21,0.21,0,0,0-.16,0l-0.16,0a1.37,1.37,0,0,1-.33,0,1.52,1.52,0,0,0-.37,0l-0.7-.09q-2-.42-3.84-0.93a20.14,20.14,0,0,1-3.52-1.3l-1.82-.79-0.28-.14-0.37-.09a0.41,0.41,0,0,1-.28-0.23h-0.09s0,0,0,0,0,0,0,0h-0.14q-0.89-.33-1.72-0.7t-1.63-.79a13,13,0,0,0-1.07,2,22.2,22.2,0,0,1-1,2.14,0.36,0.36,0,0,1-.12.14,0.34,0.34,0,0,0-.12.14,0.79,0.79,0,0,0,0,.33,2.67,2.67,0,0,1-.42.84,2.6,2.6,0,0,0-.42.88q-0.19.51-.44,1a4.09,4.09,0,0,0-.35,1.14,3.17,3.17,0,0,0-1.12.47,1,1,0,0,1-.37-0.19L334.5,206l0,0,0,0a1.15,1.15,0,0,1-.16-0.21,1.06,1.06,0,0,0-.16-0.21V205c0-.25.08-0.52,0.14-0.82l0.19-.86q0.33-1.12.68-2.21T335.9,199q0.33-.93.65-1.79t0.61-1.79a2.91,2.91,0,0,1,.23-0.75l0.47-1.4q0.7-1.72,1.44-3.4t1.44-3.4q0.14-.37.23-0.72c0.06-.23.14-0.47,0.23-0.72l0.61-1.35,0.21-.51,0.21-.51a0.39,0.39,0,0,0,0-.37,1,1,0,0,0,.26-0.47,3.92,3.92,0,0,1,.16-0.51q0.51-1.3.93-2.61t0.93-2.51a4.05,4.05,0,0,0,.16-0.51q0.07-.28.16-0.56a3.56,3.56,0,0,0,.14-0.58l0.09-.63a0.57,0.57,0,0,0,.23-0.09,0.27,0.27,0,0,1,.19,0,0.28,0.28,0,0,0,.16,0s0.09,0,.12,0a0.31,0.31,0,0,1,.14.14,0.5,0.5,0,0,0,.09.14,0.16,0.16,0,0,0,.14,0,0.33,0.33,0,0,1,.14,0,7.23,7.23,0,0,1,1.33.3,1.2,1.2,0,0,1,.81.86,1.43,1.43,0,0,1,0,.51,2.48,2.48,0,0,1-.14.51,5.15,5.15,0,0,1-.74,1.58,5.59,5.59,0,0,1-.3.61l-0.3.51a0.71,0.71,0,0,0-.14.19l-0.09.19a0.31,0.31,0,0,0-.09.23,0.52,0.52,0,0,1,0,.23q-0.23.51-.44,1a5.36,5.36,0,0,0-.3,1.14,2.72,2.72,0,0,1-.12.42l-0.16.42q-0.28.61-.58,1.21a5.24,5.24,0,0,0-.44,1.26,1.25,1.25,0,0,1-.16.42c-0.08.12-.15,0.25-0.21,0.37l-0.74,1.61-0.75,1.65q-0.28.65-.54,1.4t-0.58,1.49l-0.19.42a0.41,0.41,0,0,0,0,.19,0.2,0.2,0,0,1,0,.19l1.23-1,1.28-1,0.21-.16a0.58,0.58,0,0,1,.21-0.12c0.06,0,.08,0,0.07,0s0,0,.07,0a0.15,0.15,0,0,0,.14-0.09,0.72,0.72,0,0,1,.14-0.19l0.14-.07a0.64,0.64,0,0,0,.14-0.12l0.28-.19a0.52,0.52,0,0,0,.14-0.09,0.53,0.53,0,0,1,.14-0.09l0.79-.47,0.65-.28,2.28-1.4q0.93-.46,1.79-0.93t1.75-1l0.51-.33,0.19-.28a0.27,0.27,0,0,1,.19-0.09,0.17,0.17,0,0,1,.09-0.14,0.59,0.59,0,0,1,.23-0.14,0.57,0.57,0,0,0,.23-0.14,7.07,7.07,0,0,0,1-.56q0.49-.33,1-0.61l0.47-.28a4.32,4.32,0,0,0,.47-0.33l0.47-.37q0.42-.32.88-0.63a5.15,5.15,0,0,0,.84-0.67l1.63-1.54,0.51-.61a0.82,0.82,0,0,0,.3-0.26,2.68,2.68,0,0,0,.21-0.35l0.33-.51,0.09-.28a1.37,1.37,0,0,1,.21-0.37,1.72,1.72,0,0,0,.21-0.33,1.87,1.87,0,0,0,.23-0.61,4.39,4.39,0,0,0,0-.7,0.92,0.92,0,0,0,0-.35,2.38,2.38,0,0,1,0-.35,0.61,0.61,0,0,0,0-.37l-0.12-.33a2.33,2.33,0,0,0-.77-1.07l-1-.84a0.42,0.42,0,0,0-.23-0.12,0.8,0.8,0,0,1-.23-0.07,9.37,9.37,0,0,0-2.3-.75q-1.23-.23-2.68-0.42a9.62,9.62,0,0,0-1.35-.09,11.54,11.54,0,0,1-1.44-.09,11.29,11.29,0,0,0-1.44,0,3.05,3.05,0,0,0-.74.09,6.1,6.1,0,0,1-.75.14q-1.35.23-2.49,0.54a8.79,8.79,0,0,0-2.12.86,4.54,4.54,0,0,0-.49.28l-0.44.28a2,2,0,0,0-.51.37,0.27,0.27,0,0,1-.19.09,0.27,0.27,0,0,0-.19.09c0,0.06-.06.09-0.09,0.07a0.08,0.08,0,0,0-.09,0,0.28,0.28,0,0,0-.19.19,0.47,0.47,0,0,1-.26.09,0.29,0.29,0,0,0-.21.09,1,1,0,0,1-.3.21,3.4,3.4,0,0,0-.4.21,1.53,1.53,0,0,1-.37.21,0.45,0.45,0,0,1-.37,0,2.36,2.36,0,0,1-.56-0.56,2.8,2.8,0,0,1-.33-0.88,0.47,0.47,0,0,1-.09-0.26V172.8l0.33-.33a5.12,5.12,0,0,1,1.14-.86l1.28-.72,0.35-.19a3.25,3.25,0,0,1,.4-0.19,21.63,21.63,0,0,1,3.47-1.14,27.16,27.16,0,0,1,3.93-.63l0.56,0,0.56,0h0.51l1.63-.09h0.28Zm-23.65,36.36,0.09,0.19a0.81,0.81,0,0,0,.23.23,1.15,1.15,0,0,1-.16-0.21A1.06,1.06,0,0,0,334.18,205.53Zm6.29-9a0.26,0.26,0,0,1,.14.09h0V196.5a0.31,0.31,0,0,0-.14-0.14,0.15,0.15,0,0,0-.19,0,0,0,0,0,0,0,0l0,0h0Zm-0.14-.09a0,0,0,0,0,0,0l0,0h0a0.26,0.26,0,0,1,.14.09h0V196.5a0.31,0.31,0,0,0-.14-0.14A0.15,0.15,0,0,0,340.32,196.41Zm0.61,0.28,0,0a0.19,0.19,0,0,0-.14,0,0.13,0.13,0,0,0,0,.09h0q0,0.09.19,0v-0.09Zm0,0,0,0a0.19,0.19,0,0,0-.14,0,0.13,0.13,0,0,0,0,.09h0q0,0.09.19,0v-0.09Zm1.44-1.49a0.09,0.09,0,0,1,0,.07,0.09,0.09,0,0,0,0,.07q-0.09,0-.07-0.09C342.27,195.15,342.31,195.14,342.37,195.2Zm0.28,1.26a0.12,0.12,0,0,1-.16,0,0.2,0.2,0,0,0-.16-0.09h0c0,0.06,0,.09,0,0.09a0.33,0.33,0,0,0,.28.28,0.27,0.27,0,0,0,0-.19v0Zm0,0a0.12,0.12,0,0,1-.16,0,0.2,0.2,0,0,0-.16-0.09h0c0,0.06,0,.09,0,0.09a0.33,0.33,0,0,0,.28.28,0.27,0.27,0,0,0,0-.19v0Zm0.19-1.58a0.8,0.8,0,0,1-.42-0.23,0.9,0.9,0,0,1,.28,0A0.18,0.18,0,0,1,342.84,194.87Zm-0.42,1.3a0.31,0.31,0,0,1,.19.07,0.24,0.24,0,0,0,.23,0,0.26,0.26,0,0,1-.14-0.09s0,0,0,0,0,0,0,0S342.42,196.14,342.42,196.17Zm0,0a0.31,0.31,0,0,1,.19.07,0.24,0.24,0,0,0,.23,0,0.26,0.26,0,0,1-.14-0.09s0,0,0,0,0,0,0,0S342.42,196.14,342.42,196.17Zm0.75,1.72c0.06,0,.09,0,0.09-0.09l0,0h0v0s0,0,0,0,0,0,0,0V198a0,0,0,0,0,0,0h0.09v0l-0.09-.19v-0.14l0,0v0a0.13,0.13,0,0,1,0-.09,0.09,0.09,0,0,1-.07,0,0.1,0.1,0,0,0-.07,0l-0.19-.09c0,0.12,0,.19-0.09.19v-0.09l-0.12,0-0.12,0a0.13,0.13,0,0,0,0,.09,0.46,0.46,0,0,0,.42.19v0a0,0,0,0,0,0,0C343.21,197.85,343.19,197.9,343.16,197.9Zm0-.19a0,0,0,0,0,0,0c0,0.09,0,.14,0,0.14s0.09,0,.09-0.09l0,0h0v-0.09l0,0v0a0.13,0.13,0,0,1,0-.09,0.09,0.09,0,0,1-.07,0,0.1,0.1,0,0,0-.07,0l-0.19-.09c0,0.12,0,.19-0.09.19v-0.09l-0.12,0-0.12,0a0.13,0.13,0,0,0,0,.09,0.46,0.46,0,0,0,.42.19v0Zm0.37-.65a0.27,0.27,0,0,1,0-.19h-0.09a3,3,0,0,1-.4-0.19l-0.35-.19a0.9,0.9,0,0,0,.23.33l0.28,0.14a0.13,0.13,0,0,0,.09,0h0s0,0,0,0,0,0,0,0a0.13,0.13,0,0,0,.09,0Zm0,0a0.27,0.27,0,0,1,0-.19h-0.09a3,3,0,0,1-.4-0.19l-0.35-.19a0.9,0.9,0,0,0,.23.33l0.28,0.14a0.13,0.13,0,0,0,.09,0h0s0,0,0,0,0,0,0,0a0.13,0.13,0,0,0,.09,0Zm-0.79,0a0.56,0.56,0,0,1,.14.09,0.51,0.51,0,0,0,.14.09h0.09v0a0.7,0.7,0,0,1-.19-0.14A0.12,0.12,0,0,0,342.74,197.11Zm0,0a0.56,0.56,0,0,1,.14.09,0.51,0.51,0,0,0,.14.09h0.09v0a0.7,0.7,0,0,1-.19-0.14A0.12,0.12,0,0,0,342.74,197.11Zm0.42-.93a0.13,0.13,0,0,0,0,.09h0.14v-0.09l0,0s0,0,0,0,0,0,0,0l0,0v0Zm0.19,0,0,0s0,0,0,0,0,0,0,0l0,0v0a0.13,0.13,0,0,0,0,.09h0.14v-0.09Zm-0.14.37,0,0a0,0,0,0,0,0,0,0.26,0.26,0,0,0,.19.09,0.19,0.19,0,0,0,.14,0h0.14l0.09,0-0.56-.19h-0.09Zm0.09,0h-0.09l0,0a0,0,0,0,0,0,0,0.26,0.26,0,0,0,.19.09,0.19,0.19,0,0,0,.14,0h0.14l0.09,0Zm0-3.45a1.83,1.83,0,0,1,.3-0.16,0.42,0.42,0,0,0,.21-0.35Zm0,0,0.28-.16a0.4,0.4,0,0,0,.19-0.3Zm0.09,2.33a1.47,1.47,0,0,1,.14.26,0.28,0.28,0,0,0,.19.16c0,0.09-.06.12-0.19,0.09a0.19,0.19,0,0,0-.19-0.23,0.32,0.32,0,0,1,0-.14A0.33,0.33,0,0,0,343.35,195.43Zm0,2.37s0,0,0,0,0,0,0,0V198a0,0,0,0,0,0,0h0.09v0Zm0.09-5.31,0,0h0q0.23,0.09.37-.23a0,0,0,0,0,0,0v0A1.81,1.81,0,0,1,343.44,192.5Zm0.42-.19a1.81,1.81,0,0,1-.42.19l0,0h0a0.31,0.31,0,0,0,.28-0.14s0,0,0,0S343.86,192.34,343.86,192.31Zm0.23,5.68a0.19,0.19,0,0,0,0,.14,0.08,0.08,0,0,0,.09.09l0,0c0.06,0,.09,0,0.09,0l0,0a1,1,0,0,1-.4-0.28,0.56,0.56,0,0,0-.44-0.19v0a0.29,0.29,0,0,0,.23.23h0.28Zm-0.51-.23a0.29,0.29,0,0,0,.23.23h0.28a0.19,0.19,0,0,0,0,.14,0.08,0.08,0,0,0,.09.09l0,0c0.06,0,.09,0,0.09,0l0,0a1,1,0,0,1-.4-0.28,0.56,0.56,0,0,0-.44-0.19v0Zm1.12-.23-0.09-.09s0,0,0,0,0,0,0,0l-0.33-.23a0.19,0.19,0,0,1-.14,0l-0.42-.14v0a1.63,1.63,0,0,0,.51.28A4.28,4.28,0,0,1,344.7,197.52Zm0,0-0.09-.09s0,0,0,0,0,0,0,0l-0.33-.23a0.19,0.19,0,0,1-.14,0l-0.42-.14v0a1.63,1.63,0,0,0,.51.28A4.28,4.28,0,0,1,344.7,197.52Zm-0.61-.56a0,0,0,0,0,0,0h0.09v0l0-.09a0,0,0,0,1,0,0,0.1,0.1,0,0,1,0,.07A0.09,0.09,0,0,0,344.09,197Zm0.14,0,0-.09h0s0,0,0,0,0,0,0,0a0,0,0,0,0,0,0h0.09v0Zm0.7,0.23-0.28-.14h0l-0.16,0-0.12,0s0,0,.09,0a0.58,0.58,0,0,0,.23.14,1.19,1.19,0,0,1,.28.14,0.1,0.1,0,0,1,.07,0,0.09,0.09,0,0,0,.07,0h0.09Zm0,0-0.28-.14h0l-0.16,0-0.12,0s0,0,.09,0a0.58,0.58,0,0,0,.23.14,1.19,1.19,0,0,1,.28.14,0.1,0.1,0,0,1,.07,0,0.09,0.09,0,0,0,.07,0h0.09Zm0.09,0.56a0.13,0.13,0,0,0,.09,0H345l-0.09-.09h0v0.14H345Zm0,0,0,0h0l-0.09-.09h0v0.14H345Zm0.37-6.29h0a4.12,4.12,0,0,0,.67-0.42,5.56,5.56,0,0,1,.63-0.42,0.41,0.41,0,0,1-.19,0,0.26,0.26,0,0,0,.14-0.09l0,0h0a0.13,0.13,0,0,0-.09,0l-0.79.42-0.09.09h-0.09a0,0,0,0,1,0,0l-0.23.14-0.09.09-0.19.14Zm0,0h0.09l0.09-.09,0.28-.14,0.51-.37,0.14-.14a0.13,0.13,0,0,0,.09,0l0.09,0h0l-0.09,0-0.79.42,0,0a0.09,0.09,0,0,0-.07,0,0.09,0.09,0,0,1-.07,0,0,0,0,0,1,0,0l-0.23.14-0.09.09-0.19.14Zm-0.23,7,0,0s0,0,0,.09h0.14v0s0,0,0-.09,0,0,0,0,0,0,0,0,0,0-.09,0l0,0v0h0Zm0,0,0,0s0,0,0,.09h0.14v0s0,0,0-.09,0,0,0,0,0,0,0,0,0,0-.09,0l0,0v0h0Zm0.79-.56,0.33,0.16a1.54,1.54,0,0,0,.33.12v0a0.1,0.1,0,0,0,0-.07,0.18,0.18,0,0,1,0-.12,1,1,0,0,1-.37,0h-0.23Zm0.61,0a1,1,0,0,1-.37,0h-0.23l0.33,0.16a1.54,1.54,0,0,0,.33.12v0a0.1,0.1,0,0,0,0-.07A0.18,0.18,0,0,1,346.51,197.94Zm0.09,1.3h0l0,0.09h0.14v0s0,0,0,0,0,0,0,0l-0.09-.09h0s0,0-.09,0h-0.19Zm0,0h0l0,0.09h0.14v0s0,0,0,0,0,0,0,0l-0.09-.09h0s0,0-.09,0h-0.19Zm0-.75h0l0,0,0,0,0.09,0a0,0,0,0,0,0,0s0,0,0,0,0,0,0,0h0.14a0,0,0,0,0,0,0h0l0,0a0.79,0.79,0,0,1-.23-0.09,0.26,0.26,0,0,1-.14-0.09h0Zm0.28,0.28a0,0,0,0,0,0,0h0l0,0a0.79,0.79,0,0,1-.23-0.09,0.26,0.26,0,0,1-.14-0.09h-0.09l0,0,0,0,0.09,0a0,0,0,0,0,0,0s0,0,0,0,0,0,0,0h0.14Zm0.33,0c-0.06.12-.09,0.17-0.09,0.14v0l0,0a0.13,0.13,0,0,0,.09,0h0v-0.09q-0.14-.14-0.09-0.14v0Zm0,0c-0.06.12-.09,0.17-0.09,0.14v0l0,0a0.13,0.13,0,0,0,.09,0h0v-0.09q-0.14-.14-0.09-0.14v0Zm0.09-.47c-0.09.09-.11,0.16,0,0.19l0,0a0.08,0.08,0,0,0,.09.09h0.19s0,0,0,0,0,0,0,0a0.27,0.27,0,0,0-.19-0.09A0.27,0.27,0,0,1,347.31,198.27Zm0,0c-0.09.09-.11,0.16,0,0.19l0,0a0.08,0.08,0,0,0,.09.09h0.19s0,0,0,0,0,0,0,0a0.27,0.27,0,0,0-.19-0.09A0.27,0.27,0,0,1,347.31,198.27Zm0,1a0.26,0.26,0,0,0,.14.09l0.23,0.14a0.19,0.19,0,0,0,0-.14l0,0v0h0c-0.06,0-.09,0-0.09,0a0.19,0.19,0,0,1-.14,0v0.09Zm0,0a0.26,0.26,0,0,0,.14.09l0.23,0.14a0.19,0.19,0,0,0,0-.14l0,0v0h0c-0.06,0-.09,0-0.09,0a0.19,0.19,0,0,1-.14,0v0.09Zm0.23-.23a0.19,0.19,0,0,1-.14,0h0v0h0l0,0h0v0h0l0,0h0l0,0h-0.14Zm0,0a0.19,0.19,0,0,1-.14,0h0v0h0l0,0h0v0h0l0,0h0l0,0h-0.14Zm0.33-1a0.12,0.12,0,0,1-.12,0,0.26,0.26,0,0,0-.12-0.09,0.32,0.32,0,0,1,.21,0C348,197.94,348,198,347.91,198.08Zm0.09,1.07c0,0.06,0,.09,0,0.09v0.09h0.14v-0.19h0a0,0,0,0,1,0,0,0,0,0,0,1,0,0h0Zm0,0c0,0.06,0,.09,0,0.09v0.09h0.14v-0.19h0a0,0,0,0,1,0,0,0,0,0,0,1,0,0h0Zm0,0.37,0.09,0h0v-0.09l0,0s0,0-.09,0v0.14Zm0,0,0.09,0h0v-0.09l0,0s0,0-.09,0v0.14Zm0.23,0a60933.84,60933.84,0,0,1-.09.09,0.13,0.13,0,0,0,0,.09l0.14,0.09v0l0-.09v-0.14h0Zm0,0a60933.84,60933.84,0,0,1-.09.09,0.13,0.13,0,0,0,0,.09l0.14,0.09v0l0-.09v-0.14h0Zm0.14-1.68a0.25,0.25,0,0,1-.19.14q-0.09-.09,0-0.16A0.13,0.13,0,0,1,348.42,197.8Zm0-7.92a0.19,0.19,0,0,0,.14,0,0.06,0.06,0,0,0,0-.09l0,0v0l-0.14.14h0Zm0,0c0.12,0,.16,0,0.09-0.09v0l-0.14.14h0Zm0.19,9.08a0.27,0.27,0,0,0-.19,0v0c0,0.06,0,.09.14,0.09l0,0v0Zm0,0a0.27,0.27,0,0,0-.19,0v0c0,0.06,0,.09.14,0.09l0,0v0Zm1.12,0.56h0a0.81,0.81,0,0,0-.23-0.09l0,0.09a0.12,0.12,0,0,1,.12,0,0.12,0.12,0,0,0,.12,0h0.09v-0.09Zm-0.33,0a0.12,0.12,0,0,1,.12,0,0.12,0.12,0,0,0,.12,0h0.09v-0.09h0a0.81,0.81,0,0,0-.23-0.09Zm0.28-.37c-0.06,0-.09,0-0.09,0a0.14,0.14,0,0,0,0-.09q0-.09.14,0A0.09,0.09,0,0,1,349.68,199.15Zm0.19-.93h-0.14v0.09h-0.09a0.19,0.19,0,0,1,0-.12,0.09,0.09,0,0,0,0-.07Zm1,1.58a0,0,0,0,0,0,0v0h0l0,0h0l0,0h-0.14l-0.19-.09s0,0,0,0,0,0,0,0v0c0.09,0.09.12,0.14,0.09,0.14h0.14v-0.09a0.19,0.19,0,0,1,.19.09h0v0.14s0,0,0,0h0.09l0.09,0.14v-0.14s0,0,.09,0l0,0a0,0,0,0,0,0,0,0.19,0.19,0,0,0,0,.14,0.13,0.13,0,0,1,.09,0h0.14a1.08,1.08,0,0,1,.28.19l0.14-.23h-0.14l0,0a0.19,0.19,0,0,1-.14,0,0.14,0.14,0,0,1-.09,0h0a0.13,0.13,0,0,1-.09,0h-0.09a0.52,0.52,0,0,0-.23,0l-0.09.09v-0.09Zm0,0a0,0,0,0,0,0,0v0h0l0,0h0l0,0h-0.14l-0.19-.09s0,0,0,0,0,0,0,0v0c0.09,0.09.12,0.14,0.09,0.14h0.14v-0.09a0.19,0.19,0,0,1,.19.09h0v0.14s0,0,0,0h0.09l0.09,0.14v-0.14s0,0,.09,0l0,0a0,0,0,0,0,0,0,0.19,0.19,0,0,0,0,.14,0.13,0.13,0,0,1,.09,0h0.14a1.08,1.08,0,0,1,.28.19l0.14-.23h-0.14l0,0a0.19,0.19,0,0,1-.14,0,0.14,0.14,0,0,1-.09,0h0a0.13,0.13,0,0,1-.09,0h-0.09a0.52,0.52,0,0,0-.23,0l-0.09.09v-0.09Zm-0.28-.28a0.13,0.13,0,0,1,0-.09h0a0.1,0.1,0,0,1,.07,0,0.09,0.09,0,0,0,.07,0l-0.09-.09h0a0.08,0.08,0,0,1-.09-0.09,0.14,0.14,0,0,1,0,.09v0.09A0,0,0,0,0,350.61,199.53Zm0,0a0.13,0.13,0,0,1,0-.09h0a0.1,0.1,0,0,1,.07,0,0.09,0.09,0,0,0,.07,0l-0.09-.09h0a0.08,0.08,0,0,1-.09-0.09,0.14,0.14,0,0,1,0,.09v0.09A0,0,0,0,0,350.61,199.53Zm0.84,0.09a0.27,0.27,0,0,0-.19,0l0,0v0h0.09a0.13,0.13,0,0,1,.09,0h0.14a0.19,0.19,0,0,0,.14,0l0.14,0.09a0,0,0,0,0,0,0,0.14,0.14,0,0,0,0-.09,0.26,0.26,0,0,0-.14-0.09h-0.14Zm0,0a0.27,0.27,0,0,0-.19,0l0,0v0h0.09a0.13,0.13,0,0,1,.09,0h0.14a0.19,0.19,0,0,0,.14,0l0.14,0.09a0,0,0,0,0,0,0,0.14,0.14,0,0,0,0-.09,0.26,0.26,0,0,0-.14-0.09h-0.14Zm1.26,0.33a0.66,0.66,0,0,1-.12-0.14,0.18,0.18,0,0,0-.16,0,0.16,0.16,0,0,1,.21,0A0.16,0.16,0,0,1,352.71,199.95Zm0.14,0.56a0.27,0.27,0,0,0,.19.09h0.14l0.09-.09a0,0,0,0,1,0,0,0.37,0.37,0,0,0-.23,0h-0.14Zm0,0a0.27,0.27,0,0,0,.19.09h0.14l0.09-.09a0,0,0,0,1,0,0,0.37,0.37,0,0,0-.23,0h-0.14Zm0.51-.37a0.12,0.12,0,0,1-.12,0,0.12,0.12,0,0,0-.12,0c0-.09.09-0.12,0.16-0.07A0.12,0.12,0,0,1,353.36,200.13Zm0-.37q0.09-.09.12,0.07t-0.12.07v-0.14Zm0.28,0.19a0.42,0.42,0,0,0,.23.12c0.09,0,.12.05,0.09,0.12l-0.19,0a0.26,0.26,0,0,1-.19,0,0.06,0.06,0,0,0,0-.09S353.57,200,353.64,199.95Zm0.75,0.23a0.14,0.14,0,0,1,0,.09l-0.23-.14q0-.14.14-0.07Zm0.47,0a0.46,0.46,0,0,0,.21,0,0.09,0.09,0,0,1,.12.09c0,0.06-.06.09-0.19,0.09a0.38,0.38,0,0,1-.28-0.09c0-.06,0-0.09.07-0.07S354.85,200.29,354.85,200.23Zm0.84,0.75a0.41,0.41,0,0,1-.21.12,0.22,0.22,0,0,1-.21-0.07A0.36,0.36,0,0,1,355.69,201Zm1.44-.14a0,0,0,0,0,0,0v0a0.27,0.27,0,0,0-.09.19h0l0,0,0,0v-0.09ZM357,201l0,0,0,0v-0.09a0,0,0,0,0,0,0v0a0.27,0.27,0,0,0-.09.19h0Z" transform="translate(-218.71 -168.61)"/><path class="cls-1" d="M383.2,194.68a0.41,0.41,0,0,0-.42.21l-0.37.49a0.36,0.36,0,0,1,0-.14,8.45,8.45,0,0,0-.7.58l-0.7.67H381v0l-0.21.23a0.17,0.17,0,0,1-.26,0,1,1,0,0,0-.35.33,0.49,0.49,0,0,1-.3.23l-0.37.35-0.42.35s0,0-.09,0a1,1,0,0,1-.61.28,7.1,7.1,0,0,0-.91.58,1.33,1.33,0,0,1-.82.3,5.19,5.19,0,0,0-.61.09,0.94,0.94,0,0,1-.42,0,2.76,2.76,0,0,0-.93.21,1.33,1.33,0,0,1-.93.07,0.57,0.57,0,0,0-.33-0.33,4.25,4.25,0,0,0-.44-0.23,0.6,0.6,0,0,1-.3-0.42,1.85,1.85,0,0,1-.74-1,4.49,4.49,0,0,1-.26-1.44,9.15,9.15,0,0,1,.12-1.7,15.24,15.24,0,0,1,.37-1.72,8.54,8.54,0,0,0-1.26,1.23q-0.61.72-1.21,1.37a3.15,3.15,0,0,1-.51.7q-0.28.28-.56,0.51-0.79.93-1.49,1.63a0.09,0.09,0,0,1,0,.07,0.51,0.51,0,0,0-.07.12l-0.84.65a5.93,5.93,0,0,1-1,.63,2.7,2.7,0,0,1-1,.3,1.59,1.59,0,0,1-1.09-.37,0.63,0.63,0,0,1-.44-0.21,1.15,1.15,0,0,0-.35-0.3,1.09,1.09,0,0,1-.63-0.56,4,4,0,0,1-.16-1,2.41,2.41,0,0,1,.07-0.84,4,4,0,0,1,.3-0.88,6.25,6.25,0,0,1,.7-1.65q0.46-.77.88-1.42,0.79-1.07,1.61-2t1.7-1.79a3.62,3.62,0,0,0,.58-0.37,2.58,2.58,0,0,1,.67-0.37,0.51,0.51,0,0,0,.51-0.12,0.28,0.28,0,0,1,.47.12,4.86,4.86,0,0,1,1.72.47,2,2,0,0,1,1,1.21l0.61-.42a2.17,2.17,0,0,1,.61-0.28,0.45,0.45,0,0,0,.23-0.19,0.25,0.25,0,0,1,.19-0.14,1.07,1.07,0,0,1,.86.19,5.87,5.87,0,0,0,.77.47,0.11,0.11,0,0,1,.12,0,0.35,0.35,0,0,0,.21,0l0.14,0.21a1,1,0,0,1,.09.21,4.48,4.48,0,0,1-.21,1.82,8.22,8.22,0,0,1-.67,1.63q-0.19,1.07-.51,2.33a4.06,4.06,0,0,0,0,2.19,7,7,0,0,0,2.72-.82q1.09-.63,2.21-1.23,0.42-.32.77-0.56a3.44,3.44,0,0,0,.68-0.61,0.14,0.14,0,0,1,.09,0v0a2.22,2.22,0,0,0,.93-0.58l1.42-1.21q0.72-.63,1.35-1.09t0.72-.33a0.18,0.18,0,0,0,.23,0,0.26,0.26,0,0,1,.23,0,0.17,0.17,0,0,1,0,.14,0.08,0.08,0,0,0,0,.09v-0.09s0,0,0,.12l-0.09.23a0.5,0.5,0,0,1-.09.16s0,0,0-.09l-0.21.21-0.21.21a2.88,2.88,0,0,0-.12.33,3.12,3.12,0,0,1-.12.33,0.27,0.27,0,0,1-.19,0,0.62,0.62,0,0,1-.26.33,0.64,0.64,0,0,0-.26.37,0.3,0.3,0,0,0-.19.23Zm-12.71-4a2.77,2.77,0,0,0-.35-1q-0.26-.42-0.91-0.09l-0.75.84a0.61,0.61,0,0,1-.23.21,0.88,0.88,0,0,0-.23.16,1.21,1.21,0,0,0-.19.26,3.31,3.31,0,0,1-.23.35l-0.65.75a14.24,14.24,0,0,0-1,1.47q-0.49.82-.86,1.56a1.81,1.81,0,0,1-.23.42,1.59,1.59,0,0,0-.23.56c-0.06,0-.09,0-0.09,0s0,0.05,0,0a2.28,2.28,0,0,1-.33.86,1.6,1.6,0,0,0-.23.91l0.79-.47a3.13,3.13,0,0,0,.7-0.51q1.35-1.3,2.58-2.72t2.44-2.91a0.74,0.74,0,0,0,.23-0.26,0.43,0.43,0,0,1,.23-0.21v-0.09A0.64,0.64,0,0,0,370.49,190.68Z" transform="translate(-218.71 -168.61)"/><path class="cls-1" d="M379.34,204.23a0.34,0.34,0,0,0-.19.28,0.46,0.46,0,0,1,.07-0.28,0.17,0.17,0,0,0,0-.19,1.86,1.86,0,0,0,.61-0.61,0.27,0.27,0,0,0,0,.19,1.28,1.28,0,0,0-.47.61,1.64,1.64,0,0,0,.4-0.33l0.4-.42a1.31,1.31,0,0,1-.35.47,0.78,0.78,0,0,0-.26.61,0.36,0.36,0,0,0,.26-0.28,0.51,0.51,0,0,1,.4-0.33,0.88,0.88,0,0,1,.16-0.28,3.15,3.15,0,0,0,.21-0.28v0a0.22,0.22,0,0,0,.16-0.07l0.12-.12c0.06,0,.07,0,0,0s-0.05,0,0,0a0.18,0.18,0,0,0,0-.23,5.38,5.38,0,0,0,.88-0.91,5.47,5.47,0,0,1,.88-0.91,4.82,4.82,0,0,1,.28-0.79,1.72,1.72,0,0,0-.44.56,5.71,5.71,0,0,1-.35.61c-0.06-.09-0.12-0.1-0.16,0a1.28,1.28,0,0,0-.12.26q-0.09-.19-0.09,0c-0.06,0-.06-0.07,0-0.12a0.12,0.12,0,0,0,0-.16,0.79,0.79,0,0,0-.37.3,1.78,1.78,0,0,1-.37.4q0.19,0.09.26,0a0.8,0.8,0,0,1,.12-0.19,0.33,0.33,0,0,1-.14.23,0.24,0.24,0,0,0-.09.23h0.14s0,0-.09,0a0.08,0.08,0,0,0-.09.09c-0.06,0-.08-0.05,0-0.07a0.08,0.08,0,0,0,0-.07,0.26,0.26,0,0,0-.09.14,0.13,0.13,0,0,1,0,.09v-0.23a0.11,0.11,0,0,0-.07.14c0,0.06,0,.09-0.16.09a0.58,0.58,0,0,1,.07-0.3,2.5,2.5,0,0,0,.16-0.35s0,0,0,0a0.08,0.08,0,0,1-.07.07A0.22,0.22,0,0,1,381,202l0.21-.23a0.16,0.16,0,0,1-.07.14,0.35,0.35,0,0,0-.12.19,1.49,1.49,0,0,0,.51-0.47,3,3,0,0,1,.37-0.47v0.09a4,4,0,0,0,.44-0.42l0.35-.42v0a0.56,0.56,0,0,0,.28-0.61,2.2,2.2,0,0,1,0-.79q0.28-.84.54-1.79t0.44-1.84H383.9a15.81,15.81,0,0,1,.58-1.77,6.76,6.76,0,0,0,.44-1.82q0.09-.47.26-1a1.59,1.59,0,0,1,.63-0.86h0a1.34,1.34,0,0,1,.47.07,0.48,0.48,0,0,0,.42-0.07,1.58,1.58,0,0,0,.72.23,1.09,1.09,0,0,1,.67.28,2.38,2.38,0,0,1-.12,1.19,6.24,6.24,0,0,0-.3,1.23,9.88,9.88,0,0,0-.37,1.33,4.28,4.28,0,0,1-.42,1.19,20.61,20.61,0,0,0,2.33-1.3c0.06,0,.09,0,0.07,0s0,0,.07,0a3.72,3.72,0,0,1,1-.58,4.66,4.66,0,0,0,1-.63h0.19l0,0s0,0,0-.07a0.65,0.65,0,0,0,.54-0.16c0.17-.14.33-0.29,0.49-0.44,0.06,0.06.05,0.11,0,.14a0.5,0.5,0,0,0-.16.09,0.18,0.18,0,0,0,.21-0.07,0.36,0.36,0,0,0,.12-0.26,0.57,0.57,0,0,0,.33-0.14,0.38,0.38,0,0,0,.19-0.28,0.59,0.59,0,0,0,.42-0.19l0,0v0l0.77-.33a0.7,0.7,0,0,0,.44-0.42,0.13,0.13,0,0,0,.19,0l0.14-.12a0.35,0.35,0,0,0,.21-0.09,0.14,0.14,0,0,1,.21,0,1.5,1.5,0,0,1,1-.44,2.78,2.78,0,0,0,1.16-.35,0.4,0.4,0,0,1-.07.44,1.11,1.11,0,0,0-.26.44,0.31,0.31,0,0,0,.23-0.09v0.09q-0.19,0-.16.09a0.33,0.33,0,0,1,0,.14s0,0,0-.14c-0.19,0-.22.06-0.09,0.19s0.22,0.16.28,0.09a0.31,0.31,0,0,1-.28.3,0.28,0.28,0,0,0-.23.35l-0.49.19a1.35,1.35,0,0,0-.49.33,0.48,0.48,0,0,0-.54.21,1.18,1.18,0,0,1-.63.4,0,0,0,0,0,0,0,0.19,0.19,0,0,0,0,.14,0.45,0.45,0,0,0-.28.19s0,0,0-.07,0-.07-0.07-0.07a0.12,0.12,0,0,0-.12.12,0.22,0.22,0,0,1-.12.16,0.28,0.28,0,0,0-.33,0,0.69,0.69,0,0,0-.33.3s0,0,0,0,0,0,0,0l-0.23.23a0.89,0.89,0,0,1-.51.19h-0.09q-0.19,0-.14.23a0.87,0.87,0,0,0-.44.26,2.3,2.3,0,0,1-.44.35c-0.06,0-.06,0,0,0s0.06-.06,0-0.09a0.5,0.5,0,0,0-.23.19c-0.06-.06-0.12,0-0.16.14s-0.13.2-.26,0.14a1.17,1.17,0,0,1-.56.44,1.11,1.11,0,0,0-.56.49,0.58,0.58,0,0,0-.51.09,0.4,0.4,0,0,0-.14.28,0.33,0.33,0,0,0-.37.37,0.27,0.27,0,0,0-.33,0,0.75,0.75,0,0,0-.33.37c-0.06,0-.08,0,0,0a0.07,0.07,0,0,0,0-.07,0.61,0.61,0,0,0-.3.21,0.33,0.33,0,0,1-.3.12,1.36,1.36,0,0,1-.51.51,0.85,0.85,0,0,0-.42.51l-0.19,0q-0.33.42-.68,0.93t-0.63.88a0.4,0.4,0,0,1-.19.33,2.11,2.11,0,0,1-.07.51,1,1,0,0,1-.26.47,0.26,0.26,0,0,1,0,.33,0.39,0.39,0,0,0-.09.37,0.13,0.13,0,0,0-.09,0,0.14,0.14,0,0,1-.09,0,0.18,0.18,0,0,1,0,.28,0.26,0.26,0,0,0,0,.33h-0.14v0.14h0.09a1.2,1.2,0,0,1-.21.3,0.3,0.3,0,0,0,0,.35c-0.09,0-.12,0-0.09,0a0.12,0.12,0,0,0,0-.14l-0.23.33a0.76,0.76,0,0,0-.09.42,1.1,1.1,0,0,0,.14-0.3,0.28,0.28,0,0,1,.19-0.21,0.83,0.83,0,0,0-.14.42,0.31,0.31,0,0,1-.23.28l0,0.09a0.35,0.35,0,0,0-.26.23,1.63,1.63,0,0,0-.09.4,1.66,1.66,0,0,1-.09.4,0.35,0.35,0,0,1-.26.23,0.75,0.75,0,0,1,0,.58,2,2,0,0,1-.33.44h0a4,4,0,0,0-.23.44,0.57,0.57,0,0,1-.33.3,0.09,0.09,0,0,0,0,.14,0.15,0.15,0,0,1,.09.14,0.42,0.42,0,0,0-.21.07,0.09,0.09,0,0,0,0,.16,0.16,0.16,0,0,0-.14.14c0,0.09,0,.14,0,0.14s0-.11.07,0,0.1,0,.16-0.14q0.09,0,0,.14a0.15,0.15,0,0,0,0,.19,0.38,0.38,0,0,0-.23.07l-0.19.12a0.24,0.24,0,0,0,.16,0l0.12-.12a0.57,0.57,0,0,1-.3.33,0.49,0.49,0,0,0-.26.42v0.09a0.07,0.07,0,0,0,.07,0,0.08,0.08,0,0,1,.07,0l0.09-.28c0.06,0.09.1,0.12,0.12,0.07a0.11,0.11,0,0,1,.12-0.07,0.57,0.57,0,0,1-.07.16l-0.12.07c-0.06,0-.07,0,0,0s0.05,0,0,0a1,1,0,0,0-.33.51,1.64,1.64,0,0,1-.33.6l-0.23.14c-0.06,0-.06.09,0,0.19s0,0,0-.07a0.16,0.16,0,0,1,0-.12,0.31,0.31,0,0,1,0,.33l-0.19.28a0.21,0.21,0,0,0-.14.21q0,0.21-.28.12,0.14,0.37-.07.44a0.16,0.16,0,0,0-.12.26,0,0,0,0,0,0,0s0,0-.09,0,0,0.08,0,0a0.19,0.19,0,0,1,.14,0l-0.23.21a0.2,0.2,0,0,0-.09.16c0,0.06,0,.05,0,0s0.06-.09.19,0a0.11,0.11,0,0,1-.12.14,0.23,0.23,0,0,0-.16,0,4.89,4.89,0,0,1-.56.84s0,0,.09,0a0.42,0.42,0,0,1-.28.23c-0.12,0-.15.09-0.09,0.19a0.11,0.11,0,0,0,.14,0s0,0,0,0a2.93,2.93,0,0,0-.7.61h0a3,3,0,0,1-.33.58q-0.19.26-.33,0.49h-0.19a3.35,3.35,0,0,1-.72.84q-0.44.37-1,.75h-0.14a0.66,0.66,0,0,1-.21.21,1.41,1.41,0,0,0-.26.21l-0.93.28a3.14,3.14,0,0,0-.65-0.12l-0.65-.07a2.47,2.47,0,0,0-.65-0.21,1.74,1.74,0,0,1-.65-0.26,0.28,0.28,0,0,1-.37,0,0.39,0.39,0,0,1-.09-0.37l0.28,0.28a0.35,0.35,0,0,0,0-.14c0-.06,0-0.09,0-0.07a0.08,0.08,0,0,1-.09,0,1,1,0,0,0,.07-0.47,0.94,0.94,0,0,1,0-.37v0a0,0,0,0,1,0,0,16.34,16.34,0,0,1,.65-2.12,12.52,12.52,0,0,1,.93-1.89c0.06,0,.07,0,0,0.07a0.22,0.22,0,0,0-.07.16,1.05,1.05,0,0,0,.23-0.7,2.77,2.77,0,0,0,.42-0.63,3.91,3.91,0,0,1,.37-0.63,3.42,3.42,0,0,1-.3.77,3.25,3.25,0,0,0-.3.82,0.21,0.21,0,0,0,.23-0.23,0.21,0.21,0,0,1-.09.3,0.5,0.5,0,0,0-.23.3,1.38,1.38,0,0,0,.3-0.3,0.31,0.31,0,0,0,0-.35,7.94,7.94,0,0,1,.51-1,6.9,6.9,0,0,0,.51-1.07c0.12,0,.19,0,0.21-0.23a0.65,0.65,0,0,1,.16-0.42v0a0.24,0.24,0,0,0,.09-0.28,0.43,0.43,0,0,1,0-.28c0.09,0,.12,0,0.07.07s0,0.07,0,.07a0.27,0.27,0,0,0,.09-0.19,0.08,0.08,0,0,1,.09-0.09V209a1.13,1.13,0,0,0,.56-0.79c0.09,0.06.17,0,.23-0.16a1,1,0,0,1,.19-0.35,0.84,0.84,0,0,1-.33.65,0.71,0.71,0,0,0-.28.65,5.63,5.63,0,0,0-.79,1.12q-0.32.6-.7,1.26,0.37-.51.65-1l0.61-1q0.28,0,.28-0.56c0.06,0.06.09,0.07,0.07,0s0-.05.07,0a1.92,1.92,0,0,1,.4-0.7,1.49,1.49,0,0,0,.35-0.7l-0.19.23c0.06,0.06.09,0,.09,0v0a0.13,0.13,0,0,0,0,.09c-0.09,0-.1-0.09,0-0.16a0.24,0.24,0,0,0,.07-0.26h0a0.72,0.72,0,0,1-.14.19,0.18,0.18,0,0,1,.09-0.21,1.24,1.24,0,0,1,.23-0.16,0.8,0.8,0,0,1,.26-0.44,1.05,1.05,0,0,0,.3-0.4,0.65,0.65,0,0,1,.09-0.4l0.19-.26a0.2,0.2,0,0,0,.3-0.14,0.5,0.5,0,0,1,.26-0.33,0.67,0.67,0,0,1-.3.58,1,1,0,0,0-.4.58,1.1,1.1,0,0,0,.37-0.35,2.73,2.73,0,0,1,.47-0.49,2.23,2.23,0,0,1-.49.65,2.57,2.57,0,0,0-.54.75s0.05,0,.07,0,0,0,0,0,0,0.09,0,.09-0.07,0-.07.14l0.16-.16a0.19,0.19,0,0,0,0-.21,0,0,0,0,1,0,0l0.09-.16a1.1,1.1,0,0,1,.14-0.16,0.27,0.27,0,0,1,.12-0.33,1.69,1.69,0,0,1,.3-0.14s0-.09.09-0.19c0,0.06.06,0.08,0.09,0a0.52,0.52,0,0,0,.09-0.14,0,0,0,0,0,0,0l0.09-.3a0.28,0.28,0,0,1,.19-0.21l0.16-.19a0.24,0.24,0,0,1,.21-0.09,0.21,0.21,0,0,1-.14.12,0.14,0.14,0,0,0-.09.16,0.81,0.81,0,0,0,.3-0.26,1.15,1.15,0,0,1,.35-0.3c-0.09,0-.11-0.11,0-0.23s-0.09,0-.09,0l-0.37.47q-0.09-.14.14-0.28v0A0.52,0.52,0,0,0,379.34,204.23Zm-7.87,13.22a0.22,0.22,0,0,0,.12-0.16c0-.08,0-0.12-0.07-0.12A0.87,0.87,0,0,1,371.47,217.45Zm1.3-3.4a1.19,1.19,0,0,1,.14-0.28,0.39,0.39,0,0,0,0-.33,3.06,3.06,0,0,0-.19.33A0.23,0.23,0,0,0,372.77,214.05Zm0.19-.61a0.09,0.09,0,1,0,0-.19,0.12,0.12,0,0,1,0,.12A0.1,0.1,0,0,0,373,213.45Zm7.87-7.26q0.23-.51.44-1.07a8.41,8.41,0,0,1,.49-1.07,0.32,0.32,0,0,0-.28.23,0.42,0.42,0,0,1-.23.28v-0.14a0.82,0.82,0,0,0-.21.19,0.3,0.3,0,0,1-.26.09,3.32,3.32,0,0,1-.51.77,8.37,8.37,0,0,0-.56.67,0.18,0.18,0,0,0-.19.12,0.82,0.82,0,0,1-.19.26,0.38,0.38,0,0,0,0,.16,0.14,0.14,0,0,1-.09.12,0.29,0.29,0,0,0,.07-0.12s0-.07-0.07-0.07a1.24,1.24,0,0,1-.37.47,1.12,1.12,0,0,0-.37.56h-0.09a0,0,0,0,1,0,0q-0.23.37-.47,0.7a5.21,5.21,0,0,0-.42.7s-0.06,0-.09.09l-0.09.19c-0.06,0-.08,0,0,0s0,0,0,0a4.79,4.79,0,0,1-.33.63,3.92,3.92,0,0,0-.33.68H376.4a0.88,0.88,0,0,1-.33.7v-0.09q-0.23.32-.4,0.61a7.37,7.37,0,0,0-.35.7v-0.14a6,6,0,0,0-.51,1.12,7.36,7.36,0,0,1-.51,1.16c-0.06,0-.09,0-0.09,0s0,0,0,0a0.92,0.92,0,0,1-.09.42,0.93,0.93,0,0,0-.09.42c0-.09,0-0.12-0.09-0.09a5.51,5.51,0,0,1-.16.79,0.84,0.84,0,0,0,.12.75,0.35,0.35,0,0,0,.33-0.23,1.09,1.09,0,0,1,.28-0.19,1.1,1.1,0,0,0,.28-0.19l0.16-.19a0.45,0.45,0,0,1,.16-0.14,0.85,0.85,0,0,0,.37-0.28,0.45,0.45,0,0,1,.33-0.14v-0.23a0.62,0.62,0,0,1,.37-0.14,6.31,6.31,0,0,1,.88-1.4,6.28,6.28,0,0,0,.88-1.4,0.56,0.56,0,0,0,.21-0.28,0.78,0.78,0,0,1,.16-0.28,0.19,0.19,0,0,0,0-.14,7.46,7.46,0,0,0,.56-0.93,11.06,11.06,0,0,1,.56-1,3.89,3.89,0,0,1,.54-1.26,3.29,3.29,0,0,0,.49-1.26,0.45,0.45,0,0,0,.23-0.35Q380.73,206.56,380.83,206.18Zm-6.61,5.49a0.38,0.38,0,0,0,.09-0.28A0.71,0.71,0,0,1,374.22,211.68Zm3.07-5-0.51.65a0.35,0.35,0,0,0,.14-0.12,0.35,0.35,0,0,1,.14-0.12v0c0.09,0,.12,0,0.09-0.14Zm-0.28.51a0.59,0.59,0,0,0-.14.23,0.21,0.21,0,0,0,0,.23,1.1,1.1,0,0,0,.16-0.21l0.16-.26a0.11,0.11,0,0,0-.12.07,0.21,0.21,0,0,1-.12.12Q377.1,207.21,377,207.21Zm0.14-.19,0,0A0,0,0,0,1,377.15,207Zm0.75-.42c-0.12,0-.19,0-0.19,0a0.06,0.06,0,0,0,0,.09C377.86,206.74,377.93,206.7,377.89,206.6Zm0.61-1a0.18,0.18,0,0,1,.19-0.14,0.08,0.08,0,0,0-.07.07A0.11,0.11,0,0,1,378.5,205.63Zm1.58-2.24a0.37,0.37,0,0,0-.23,0,3.19,3.19,0,0,0,.3-0.44,3.8,3.8,0,0,0,.21-0.44,0.37,0.37,0,0,1-.12.4A0.51,0.51,0,0,0,380.08,203.39Zm1.07,7a0.13,0.13,0,0,0-.09-0.19c0,0.06,0,.09,0,0.09s0,0,0,.09h0.14Zm0.65-7.73a0.85,0.85,0,0,1-.21.23c-0.11.09-.13,0.17-0.07,0.23a1.53,1.53,0,0,0,.19-0.23A0.45,0.45,0,0,0,381.81,202.65Zm0.33-.33a0.25,0.25,0,0,0,.19-0.12,0.14,0.14,0,0,0,0-.21,0.16,0.16,0,0,1-.07.14A0.35,0.35,0,0,0,382.13,202.32Zm7.78-16.9a0.09,0.09,0,0,0-.07.12,0.17,0.17,0,0,1-.07.16,0.7,0.7,0,0,0-.19.3l-0.09.3a0.82,0.82,0,0,1-.12.23,0.3,0.3,0,0,1-.26.09,0.57,0.57,0,0,0-.26.09,0.62,0.62,0,0,0-.26.33,0.37,0.37,0,0,1-.3-0.09l-0.16-.19a0.36,0.36,0,0,0-.37.23l-0.86-.4q-0.35-.16-0.77-0.4a3.26,3.26,0,0,1,.23-1,0.78,0.78,0,0,1,.93-0.35l0.14-.14,0.14-.14a1.92,1.92,0,0,1,.61.16l0.44,0.21,0.44,0.19a2.46,2.46,0,0,0,.61.14C389.64,185.37,389.72,185.42,389.91,185.42Zm0,10.2a0.22,0.22,0,0,0,.16-0.07s0-.09,0-0.12a0.1,0.1,0,0,1-.09.07C389.94,195.52,389.92,195.55,390,195.62Zm0.28-.19a0.71,0.71,0,0,0,.26-0.07,0.23,0.23,0,0,0,.16-0.21,0.56,0.56,0,0,0-.26.12Zm1.44-1.26,0.14-.14A0.28,0.28,0,0,1,391.68,194.17Zm0.28-.09a0.36,0.36,0,0,1,0-.14c0-.09,0-0.14,0-0.14s-0.09,0-.09.14S391.89,194.08,392,194.08Zm1.07-.75a1.46,1.46,0,0,0-.42.26,0.62,0.62,0,0,1-.42.16,0.1,0.1,0,0,1-.09.07c-0.06,0,0,.05,0,0.12a0.11,0.11,0,0,1,.09-0.12,0.06,0.06,0,0,1,.09.07,0.7,0.7,0,0,0,.37-0.23,0.68,0.68,0,0,1,.33-0.23v-0.09Zm0.19,0.09a0.83,0.83,0,0,1,.19-0.21,0.25,0.25,0,0,0,.09-0.21,0.19,0.19,0,0,0-.19.09,0.15,0.15,0,0,1-.14.09,0.65,0.65,0,0,1,0,.14A0.06,0.06,0,0,0,393.21,193.43Zm1.63-.93c0.12,0,.15-0.08.09-0.23a0.64,0.64,0,0,1-.14.12S394.78,192.43,394.84,192.5Zm0.65-.37,0.26-.12c0.11,0,.12-0.1,0-0.16s-0.08.1-.23,0.12S395.37,192,395.49,192.12Zm2.61-1.49a0.15,0.15,0,0,1-.14.09h-0.19A0.45,0.45,0,0,1,398.1,190.63Z" transform="translate(-218.71 -168.61)"/><path class="cls-1" d="M415.23,191.66a0.09,0.09,0,0,1,0,.07,0.09,0.09,0,0,0,0,.07v0l-0.09.09v0l0.09,0a0.89,0.89,0,0,0-.07.19,0.84,0.84,0,0,0,0,.33,0,0,0,0,1,0,0H415a0,0,0,0,1,0,0,0.27,0.27,0,0,0,0,.19,0.76,0.76,0,0,0-.28.35,0.85,0.85,0,0,1-.23.35s0,0,0,0a0.06,0.06,0,0,0,0-.09,0.57,0.57,0,0,0-.21.33,2.57,2.57,0,0,1-.16.42,0.22,0.22,0,0,1-.3.16q-0.21-.07-0.21.16a2.24,2.24,0,0,0-.4.33l-0.09.14a0.72,0.72,0,0,1-.19.16q-0.16.12-.72,0.44a3.13,3.13,0,0,1-.61.12,1,1,0,0,0-.56.26,0,0,0,0,1,0,0h0a1.52,1.52,0,0,1-.19.23l-0.14.14a0.13,0.13,0,0,0,0,.09,0.82,0.82,0,0,0-.47.07,0.84,0.84,0,0,0-.42.26,0.16,0.16,0,0,0-.23,0,0.43,0.43,0,0,0-.14.35q0-.19-0.07-0.14a0.12,0.12,0,0,1-.12,0,0.71,0.71,0,0,1-.42.37l0.14-.19a1,1,0,0,0-.33.14,2,2,0,0,1-.37.19s0.06,0,.19,0a0.34,0.34,0,0,1-.42.14,0.27,0.27,0,0,0-.23.19s0,0,0,0,0,0,0,0a0.72,0.72,0,0,1-.37.21q-0.33.12-.7,0.21l-0.7.16-0.37.07a4.5,4.5,0,0,1-2.07.33q-1.28,0-2.21-.14-0.47,0-.77,0a1.31,1.31,0,0,0-.68.23h-0.42a2.71,2.71,0,0,1-1.35,0s0,0,0,0v0l-0.12.07a0.19,0.19,0,0,1-.12,0c0.06-.22,0-0.31-0.16-0.28s-0.26,0-.26-0.14-0.14.08-.14,0.23a0.29,0.29,0,0,1-.14-0.16c-0.06-.11-0.11-0.13-0.14-0.07s0-.09,0-0.19a0.14,0.14,0,0,1-.09-0.12,0.26,0.26,0,0,0-.09-0.16,0.21,0.21,0,0,1,0-.23H396.8l-0.09.19a0.27,0.27,0,0,0,0,.19,0.19,0.19,0,0,1,0,.14c0,0.06,0,.07-0.09,0l-0.14-.12a2.92,2.92,0,0,0-.58,1.12,5.48,5.48,0,0,1-.58,1.3l-0.7,2.24q-0.09.37-.37,1.4t-0.61,2.14q-0.32,1.12-.61,2.12a13.1,13.1,0,0,1-.42,1.33l-0.19.63c-0.06.2-.12,0.43-0.19,0.68a2,2,0,0,1,0,.44,3.5,3.5,0,0,1-.09.35,1.54,1.54,0,0,1,0,.84c-0.06.06-.11,0.08-0.14,0a0.19,0.19,0,0,0-.14,0,0.36,0.36,0,0,0-.33.14,0.18,0.18,0,0,0-.21,0,0.58,0.58,0,0,1-.21,0l0-.09s0,0,0,0,0,0,0,0l0,0a1.26,1.26,0,0,1-.42-0.28,0.8,0.8,0,0,0-.42-0.23,0.51,0.51,0,0,0-.35-0.07,1.12,1.12,0,0,1-.4,0,0.44,0.44,0,0,1-.12-0.26,0.25,0.25,0,0,1,.12-0.26q0-.33.07-0.51a0.26,0.26,0,0,1,.21-0.23q0.14-.37.26-0.72a2.41,2.41,0,0,0,.12-0.77q0.14-.75.49-2.09t0.77-2.82l0.79-2.79q0.37-1.33.56-2.07a7.4,7.4,0,0,0,.61-1.56q0.23-.86.56-1.79a0.19,0.19,0,0,1,.07-0.12l0.16-.16,0.61-2q0.28-.74.61-1.47a13.07,13.07,0,0,0,.56-1.47l0.51-1.54q0.28-.79.54-1.58a6,6,0,0,1,.72-1.49,3.43,3.43,0,0,1,.7,0,2.09,2.09,0,0,1,.7.16,1,1,0,0,1,.49.42,1.06,1.06,0,0,1,.07.75,1.52,1.52,0,0,1-.33.82,1.86,1.86,0,0,0-.37.77,1.53,1.53,0,0,0-.14.61q-0.09.37-.26,0.91t-0.3,1a2.45,2.45,0,0,0,.37-0.23,0.56,0.56,0,0,1,.28-0.14c0-.06,0-0.09,0-0.09l0.77-.7,0.77-.75h0.14a0.19,0.19,0,0,0-.14,0s0,0.08,0,.14l0.09-.07s0-.05,0-0.12v0a0.76,0.76,0,0,1,0-.23c0.06,0.16.15,0.16,0.26,0a0.44,0.44,0,0,1,.26-0.21c0-.12.06-0.23,0.28-0.33a0.19,0.19,0,0,0,.21,0,0.31,0.31,0,0,0,.07-0.33,0.53,0.53,0,0,1,0,.23l0.09-.19a0.7,0.7,0,0,1,.14-0.19c-0.06,0-.08,0,0,0a1.83,1.83,0,0,0,.42-0.23l0.42-.33v0a1,1,0,0,1,.7-0.49,1.39,1.39,0,0,0,.79-0.54,0.63,0.63,0,0,0,.61-0.19h0.09a3.82,3.82,0,0,1,1.16-.4,2.65,2.65,0,0,1,1.26.07,0.26,0.26,0,0,0,.09.14,0.17,0.17,0,0,1,.16-0.07,1.05,1.05,0,0,1,.21.12c0,0.06,0,.09,0,0.07s0,0,0,.07a1,1,0,0,1,1,.77,4.22,4.22,0,0,1,0,1.61c0,0.09,0,.11.09,0v0.23c0,0.09,0,.14-0.09.14a1.38,1.38,0,0,1-.26,1.09,1.74,1.74,0,0,0-.4.91,2.18,2.18,0,0,1-.7.79,1.84,1.84,0,0,0-.65.79c0,0.06,0,.06.09,0-0.12.22-.24,0.44-0.35,0.68a0.77,0.77,0,0,1-.54.44,1.47,1.47,0,0,1-.49.63,1,1,0,0,0-.4.44,7.65,7.65,0,0,1-.93.86q-0.61.49-.84,0.72l0.77-.16,1.26-.23q0.67-.12,1.23-0.26a3.16,3.16,0,0,0,.79-0.28,17.1,17.1,0,0,0,1.75-.79,17.12,17.12,0,0,1,1.75-.79H411c0-.15.08-0.23,0.14-0.23a0.27,0.27,0,0,0,.19-0.19,0.9,0.9,0,0,0,.47-0.14,3.23,3.23,0,0,1,.47-0.23s0,0.06,0,.09a0.13,0.13,0,0,0-.07.09,1.66,1.66,0,0,0,.44-0.21,1.93,1.93,0,0,1,.4-0.21h0c0.09,0,.12,0,0.09-0.14a0.32,0.32,0,0,0,.16-0.16,0.1,0.1,0,0,0-.07,0,0.09,0.09,0,0,1-.07,0,0.33,0.33,0,0,1,.21-0.12v0.09a0.6,0.6,0,0,1,.21-0.26,0.61,0.61,0,0,0,.21-0.3H414c0-.06,0-0.09,0-0.09s0,0,0,0-0.07-.09,0-0.09a0.26,0.26,0,0,0,.16-0.09,0.9,0.9,0,0,1,.4-0.58,2.35,2.35,0,0,0,.58-0.35c0,0.09,0,.12,0,0.09a0.13,0.13,0,0,1,.09,0,0.29,0.29,0,0,1,0,.16,0.28,0.28,0,0,0,0,.16A0.32,0.32,0,0,1,415.23,191.66Zm-16.81,6.66c0-.09,0-0.14-0.09-0.14a0.25,0.25,0,0,0-.12.09,0.37,0.37,0,0,1-.07.09c-0.06.06-.09,0-0.09,0a0.3,0.3,0,0,1-.19.23s0,0,.07,0a0.16,0.16,0,0,0,.12,0,0.28,0.28,0,0,1,.26,0c0.11,0.06.16,0,.16,0v0s0,0,0-.14a0.51,0.51,0,0,0,.4.09,0.85,0.85,0,0,1,.4,0,0.18,0.18,0,0,1,.14-0.19,0.58,0.58,0,0,0,.23-0.14,3.63,3.63,0,0,0-.68,0A1.16,1.16,0,0,0,398.43,198.32Zm2.47-2.42a0.27,0.27,0,0,0,0-.19,7.67,7.67,0,0,0,1-.7q0.53-.42,1-0.88a1.41,1.41,0,0,0,.3-0.3,2.65,2.65,0,0,0,.21-0.35,0.09,0.09,0,0,0,.07,0,0.09,0.09,0,0,1,.07,0,1.18,1.18,0,0,1,.35-0.56,4.09,4.09,0,0,0,.44-0.47l0,0a1.09,1.09,0,0,1,.19-0.28,0.64,0.64,0,0,0,.14-0.33,0.14,0.14,0,0,0,.16-0.09,0.1,0.1,0,0,1,.07-0.09,18,18,0,0,1,.91-1.61,3.92,3.92,0,0,0,.54-2,0.52,0.52,0,0,0-.42.16,0.42,0.42,0,0,1-.42.12,0.77,0.77,0,0,1-.37,0,0.73,0.73,0,0,1-.35.33,0.58,0.58,0,0,0-.26.14s0,0-.14,0a0.39,0.39,0,0,0-.16.19c0,0.09-.13.09-0.26,0a0.36,0.36,0,0,1-.07.26,0.35,0.35,0,0,1-.19.09l-0.21.07a0.19,0.19,0,0,0-.09.19l-0.09-.09a0.12,0.12,0,0,0,0,.16s0,0.05-.09,0v0c-0.09,0-.14,0-0.14.09a0.06,0.06,0,0,0,0,.09,4.12,4.12,0,0,0-.37.42,0.85,0.85,0,0,1-.37.28,0.09,0.09,0,0,1,0-.07,0.09,0.09,0,0,0,0-.07c-0.06,0-.1,0-0.12,0a0.08,0.08,0,0,1-.07.07v0a3.43,3.43,0,0,1-.35.23,0.62,0.62,0,0,0-.26.33s0.06,0,.09,0,0,0,0,0a0.8,0.8,0,0,1-.26.44,3.33,3.33,0,0,0-.4.35,0,0,0,0,0,0,0,0.5,0.5,0,0,1,.28-0.26c0.12,0,.14-0.13,0-0.26a1.51,1.51,0,0,0-.51.93,0.29,0.29,0,0,0-.3.21,0.56,0.56,0,0,1-.21.3c0-.06,0-0.09,0-0.09s0,0,0,0a1.91,1.91,0,0,1-.54.81,1.92,1.92,0,0,0-.54.81v-0.14a5.51,5.51,0,0,0-.35.56q-0.21.37-.4,0.28a0.51,0.51,0,0,1,0,.16,0.38,0.38,0,0,0,0,.12c-0.12,0-.19,0-0.21.09s-0.05.11-.12,0a0.18,0.18,0,0,1,0,.12,0.22,0.22,0,0,0,0,.16,1.21,1.21,0,0,1,.7.37,3.09,3.09,0,0,0,.65.51H400v0a0.16,0.16,0,0,1,.19-0.07,0.37,0.37,0,0,0,.23,0v0.14l0.42-.16a1.61,1.61,0,0,0,.42-0.26,0.47,0.47,0,0,0-.35.12A0.23,0.23,0,1,1,400.89,195.9Zm-2.7,1.68a0.19,0.19,0,0,0,.14,0c0.09,0,.14,0,0.14-0.09h-0.21C398.19,197.52,398.16,197.54,398.19,197.57Zm0.56-3.58q0.14,0,.14-0.33l-0.16.16S398.69,193.92,398.75,194Zm0.28-.47,0.12-.09s0-.08,0-0.14a0.13,0.13,0,0,1-.09.09Q398.94,193.43,399,193.52Zm0.28-1.68a0.26,0.26,0,0,0-.14.09C399.33,191.94,399.37,191.91,399.31,191.84Zm-0.09,6.8c0.06,0,.1,0,0.12-0.09a0.35,0.35,0,0,1,.07-0.19h0c0,0.12,0,.16-0.07.12S399.22,198.49,399.22,198.64Zm0.93-.33a0.58,0.58,0,0,0-.33,0,1.52,1.52,0,0,1-.37,0,1.08,1.08,0,0,1,.37.09A0.22,0.22,0,0,0,400.15,198.32Zm0.75-7.92v-0.09l-0.72.61a2.33,2.33,0,0,0-.58.7Zm-1,1.86a0.21,0.21,0,0,1,.14-0.12,0.11,0.11,0,0,0,.09-0.12l-0.21.09C399.86,192.16,399.85,192.2,399.92,192.26Zm0.47,0.19a0.32,0.32,0,0,0,.19-0.37A0.46,0.46,0,0,0,400.38,192.45Zm0.09,3.77a0,0,0,0,1,0,0Zm0-.09h0a0.13,0.13,0,0,0,0,.09v-0.09Zm0.88,0.19a0.36,0.36,0,0,0-.47.16,0.33,0.33,0,0,1-.37.21,0.59,0.59,0,0,0,.44.09,1.06,1.06,0,0,0,.42-0.21,3.22,3.22,0,0,0,.42-0.4,1.93,1.93,0,0,1,.44-0.37,0.84,0.84,0,0,0-.54.21Zm-0.79-4.66s0.05,0,.16-0.09,0.13-.17.07-0.23A0.39,0.39,0,0,0,400.57,191.66Zm0.84-.84a0.5,0.5,0,0,0-.42.47,10.28,10.28,0,0,1,1.4-1.33q0.74-.58,1.54-1.23a11.78,11.78,0,0,0-1.3,1Q402,190.26,401.41,190.82Zm0-1.82c0,0.09,0,.14-0.09.14Zm0.79,0a0.35,0.35,0,0,1,.19-0.21,0.88,0.88,0,0,0,.23-0.16,0.81,0.81,0,0,1-.26.16A0.23,0.23,0,0,0,402.24,189Zm0,6.61q0.09,0,.12-0.07a1,1,0,0,0,0-.16Q402.24,195.38,402.24,195.62Zm0.42-7.45a0.35,0.35,0,0,1-.12.14,0.35,0.35,0,0,0-.12.14,0.12,0.12,0,0,0,.12-0.12c0-.08.05-0.1,0.12-0.07v-0.09Zm0,0.47c0.12,0,.19,0,0.19-0.14A0.44,0.44,0,0,0,402.71,188.63Zm0.09-.51,0.3-.16a1.1,1.1,0,0,0,.21-0.16,0.25,0.25,0,0,0-.26.09Zm3.77-1.4a0.22,0.22,0,0,1,.16.07s0.1,0,.16-0.07a0.21,0.21,0,0,1-.23,0C406.6,186.61,406.57,186.63,406.57,186.72Zm0.28,6.52c0,0.06,0,.09,0,0.09Zm5.87,1.21c0.12,0,.19-0.09.19-0.28A0.26,0.26,0,0,0,412.72,194.45Zm1.72-1.54a0.68,0.68,0,0,0-.14.51,0.4,0.4,0,0,1,.12-0.33A0.11,0.11,0,0,0,414.44,192.92Zm0.74-1s0,0,0,0,0,0,0-.09v0.14Z" transform="translate(-218.71 -168.61)"/><path class="cls-1" d="M433.95,191.75a0.4,0.4,0,0,0-.14.28q0.09-.09.14,0s0.06,0,.09-0.16a0.13,0.13,0,0,0,.09-0.09s0,0,.09,0a0.6,0.6,0,0,1-.21.54,0.44,0.44,0,0,0-.16.49l-0.16.19a1.55,1.55,0,0,0-.16.33c-0.06.06,0,.08,0,0s0.14,0,.14,0a0.52,0.52,0,0,0-.3.37,0.55,0.55,0,0,1-.35.37,0.06,0.06,0,0,0,0,.09v0h0a0.49,0.49,0,0,1-.35.09,0.37,0.37,0,0,0-.35.33,0.15,0.15,0,0,0-.16,0l-0.16.09a1.22,1.22,0,0,1-.56.79v0l-0.19.19a0.13,0.13,0,0,1-.07,0,0.14,0.14,0,0,0-.07.07,2.73,2.73,0,0,0-.14.26l0-.14a0.58,0.58,0,0,0-.14.28c0,0.12-.08.17-0.14,0.14s0,0.09,0,.19a1.07,1.07,0,0,1-.3.28l-0.3.23c0,0.12,0,.19-0.07.19a0.14,0.14,0,0,0-.12.09c-0.06,0-.09,0-0.07,0s0,0-.07,0a2,2,0,0,1-.19.28,0.13,0.13,0,0,1-.09,0l-0.14,0a0.28,0.28,0,0,0-.23.12l-0.12,0a0.33,0.33,0,0,0-.12.09,0.61,0.61,0,0,1-.21.3,0.88,0.88,0,0,0-.26.3c0-.06,0-0.06-0.09,0l-0.58.37q-0.35.23-.77,0.47a9,9,0,0,1-.86.42,3.25,3.25,0,0,1-.77.23,4.43,4.43,0,0,1-1,.07,2.64,2.64,0,0,1-1.09-.35,0.29,0.29,0,0,0-.14-0.07,0.11,0.11,0,0,1-.09-0.12l-0.09-.19-0.09,0a1.33,1.33,0,0,1-.54-0.61,4.61,4.61,0,0,1-.26-0.75c-0.06-.15-0.11-0.22-0.14-0.19a0.3,0.3,0,0,0,0-.33,3.56,3.56,0,0,1,0-.77q0-.53.09-1.12t0.12-1.09q0-.51.09-0.79a0.15,0.15,0,0,0-.14.09,0.41,0.41,0,0,0,0,.19,5.88,5.88,0,0,0-.37.49q-0.14.21-.33,0.54a0.64,0.64,0,0,0-.35.37,1.17,1.17,0,0,1-.49.51,1,1,0,0,1-.26.33l-0.3.23a1.86,1.86,0,0,1-.79.84,9.37,9.37,0,0,1-1.47,1.35q-0.81.61-1.56,1.12a1.89,1.89,0,0,1-1.12.28,5.56,5.56,0,0,1-1.16-.23,1,1,0,0,0-.54-0.16,1.07,1.07,0,0,1-.49-0.12,0.86,0.86,0,0,1-.35-0.51,2.19,2.19,0,0,0-.21-0.51,7.91,7.91,0,0,1,.23-2.14,23.65,23.65,0,0,1,.7-2.42q0.42-1.21.88-2.35t0.75-2l0.47-1.35a0.54,0.54,0,0,0,0-.26,0.11,0.11,0,0,1,0-.12l0.81-.09a1,1,0,0,1,.77.19,0.47,0.47,0,0,1,.54.16c0.14,0.17.24,0.3,0.3,0.4s0,0.33.09,0.33a0.72,0.72,0,0,0-.12.56,0.69,0.69,0,0,1,0,.47l-0.28.56s-0.06,0-.19.14L417,191q-0.12.37-.26,0.77l-0.26.75a2.27,2.27,0,0,1-.21.49,9,9,0,0,0-.63,1.21q-0.26.61-.44,1-0.23.79-.37,1.51t-0.23,1.56a33.19,33.19,0,0,0,4.31-3.72,42.28,42.28,0,0,0,4.31-5.17,1,1,0,0,1,.21-0.35,0.55,0.55,0,0,0,.12-0.4,0.65,0.65,0,0,0,.37-0.19q0.65,0,.88,0a1.65,1.65,0,0,1,.65.3q0,0.47,0,1a7.41,7.41,0,0,1-.09,1.16,6.83,6.83,0,0,1-.26,1.07,2.42,2.42,0,0,1-.35.72q-0.14.51-.33,1.26t-0.35,1.54A8.88,8.88,0,0,0,424,197a2.2,2.2,0,0,0,.21,1.14,3.92,3.92,0,0,0,1.89-.84,12.22,12.22,0,0,1,1.75-1.12l0-.14a0.74,0.74,0,0,1,.26-0.09h0.09l0,0,0.16-.21a10.81,10.81,0,0,0,2.37-1.72q0.28-.23.19-0.21l0.23,0a2.54,2.54,0,0,1,.47-0.51l0.49-.37,0.58-.44a4.5,4.5,0,0,0,.7-0.72h0.51Zm-0.19.33,0,0a0.28,0.28,0,0,1-.07-0.12S433.73,191.92,433.76,192.08Z" transform="translate(-218.71 -168.61)"/><path class="cls-1" d="M447.22,194.31a0.16,0.16,0,0,1-.07.14s0,0,0,0a10.09,10.09,0,0,1-.72.86,4.26,4.26,0,0,0-.63.81,1.53,1.53,0,0,0-.37.09,1.07,1.07,0,0,1,.3-0.28l0.35-.23a0.87,0.87,0,0,1,.09-0.3l0.19-.4a0.77,0.77,0,0,0-.23.33,1.58,1.58,0,0,1-.23.37,1.77,1.77,0,0,1-.56.4,1.17,1.17,0,0,0-.51.49,1.58,1.58,0,0,0-.77.7,1.17,1.17,0,0,1-.81.61,0.3,0.3,0,0,1-.09.16,0.66,0.66,0,0,0-.14.12,0.21,0.21,0,0,1,0-.16s0-.07,0-0.07l-0.42.37a1.16,1.16,0,0,0-.4.26,0.54,0.54,0,0,1-.4.16l0,0a0.64,0.64,0,0,0-.23.16l-0.07.12-0.07.12a0.39,0.39,0,0,1-.23.12c-0.06,0-.09,0-0.09,0a0.76,0.76,0,0,0-.35.21,0.54,0.54,0,0,1-.4.16,0.08,0.08,0,0,1,.09-0.09,0.31,0.31,0,0,0-.37.14H440l-1.21.65q-0.37.14-.84,0.28a5.27,5.27,0,0,1-.84.19,2.33,2.33,0,0,1-1.49.16,7.09,7.09,0,0,1-1.58-.54,10.14,10.14,0,0,0-1-.51,1.93,1.93,0,0,1-.65-0.44,1.43,1.43,0,0,1-.33-0.61,4.09,4.09,0,0,1-.09-1,0.12,0.12,0,0,1,0-.12,0.12,0.12,0,0,0,0-.12,7,7,0,0,1,.19-1.86q0.23-1.07.47-2a1.14,1.14,0,0,0,.09-0.42,0.62,0.62,0,0,1,.14-0.37,19.42,19.42,0,0,1,.61-2q0.37-1,.79-2a1.93,1.93,0,0,0,.09-0.26s0,0,0,0l0.19-.33,0.91-1.82a11,11,0,0,0,.77-1.91q-0.19.14-.14,0.07s0-.07-0.19-0.07l-0.63.21a1.73,1.73,0,0,1-.63.12L434,185a3.36,3.36,0,0,1-.61.14,6,6,0,0,1-.7.09h-0.16l-0.14,0-0.67.19a0.92,0.92,0,0,0-.67.09,1.37,1.37,0,0,1-.77.14l-0.12-.07a0.19,0.19,0,0,0-.12,0,0.7,0.7,0,0,1-.58,0,0.93,0.93,0,0,1-.35-0.35,0.51,0.51,0,0,0-.09-0.51,0.75,0.75,0,0,1-.19-0.47l0.19,0.14a10.68,10.68,0,0,0,1.68-.44l1.54-.54q0.84-.28,2-0.56a28.45,28.45,0,0,1,3.07-.51q0.93-1.91,1.91-3.49t2-3.26v-0.23a0.16,0.16,0,0,1,.21,0,0.15,0.15,0,0,0,.21,0q0,0.14.07,0.16a0.12,0.12,0,0,1,.12.12,3,3,0,0,1,.56.19,2.47,2.47,0,0,1,.61.37,1.74,1.74,0,0,1,.42.49,0.55,0.55,0,0,1,0,.54l-0.42.33a0.41,0.41,0,0,0,0,.19,2.27,2.27,0,0,1-.44.77,3.44,3.44,0,0,0-.49.72,4.56,4.56,0,0,0-.35.65,7.29,7.29,0,0,1-.35.7,1.88,1.88,0,0,1-.51.68,1.11,1.11,0,0,0-.37.72q0.79-.09,1.49-0.14t1.49,0a5.49,5.49,0,0,1,1.3-.19H446l0.23,0a1.45,1.45,0,0,0,.82,0,1.36,1.36,0,0,1,.86,0,1.12,1.12,0,0,1,.3,0,0.66,0.66,0,0,0,.35,0s0,0,0,0a0.41,0.41,0,0,1,.19,0l0,0a0.48,0.48,0,0,0,.42,0l-0.16-.12a1.57,1.57,0,0,1,.35.12,7.79,7.79,0,0,1,.93.07,1.45,1.45,0,0,1,.93.49,0.18,0.18,0,0,1,0,.16,0.31,0.31,0,0,0,0,.21,0.13,0.13,0,0,1-.09,0s0,0,0,.09l0.07,0.07,0.16,0.07a0.38,0.38,0,0,1-.28.09,0.55,0.55,0,0,0,.28.33,0.29,0.29,0,0,1-.21.09,0.17,0.17,0,0,0-.16.09,0.41,0.41,0,0,1-.19,0,1.81,1.81,0,0,1-.58,0,1,1,0,0,0-.63.14,0.33,0.33,0,0,0-.28-0.09,0.19,0.19,0,0,1-.19,0c0-.06,0-0.09,0-0.07s0,0,0-.07a0.28,0.28,0,0,0-.23.07l-0.07.12a0,0,0,0,1-.07,0,1,1,0,0,1-.19-0.16l-0.19.09,0,0h0c-0.06,0-.09,0-0.07,0s0,0,0-.07a0.28,0.28,0,0,0-.14.14,0.23,0.23,0,0,0-.35-0.07c-0.17.08-.21,0-0.12-0.12-0.06,0-.1.05-0.12,0.16s-0.1.12-.26,0a0.24,0.24,0,0,1,.12-0.16s0,0,0-.07a0.37,0.37,0,0,0-.14,0,0.3,0.3,0,0,0-.14.19v-0.14a0.17,0.17,0,0,0-.19.19v-0.14c-0.09-.06-0.16-0.08-0.19,0a0.27,0.27,0,0,1-.19,0q-0.09-.09,0-0.07a0.19,0.19,0,0,0,.19-0.07h-0.23a0.19,0.19,0,0,0-.19.09,0.34,0.34,0,0,0-.47,0q0,0.09.16,0t0.16,0a0.49,0.49,0,0,1-.19.09l-0.26.07a0.27,0.27,0,0,1-.16,0s0-.05,0-0.12h-0.19v0a0,0,0,0,0,0,0v0a0.07,0.07,0,0,1-.07,0s0,0-.07,0,0,0,0,0,0,0,0,0a0.28,0.28,0,0,0-.19.16s0,0-.09-0.07-0.09-.18-0.28-0.16a1.78,1.78,0,0,0-.51.12v-0.09a2.31,2.31,0,0,1-.35.19,0.33,0.33,0,0,1-.4-0.09,0.37,0.37,0,0,1,.14,0,0.14,0.14,0,0,0,.09,0c0-.06,0-0.09,0-0.09a0,0,0,0,1,0,0,0.19,0.19,0,0,0-.14,0,0.52,0.52,0,0,1-.14.09s0,0,0-.09a0,0,0,0,1,0,0c-0.16,0-.22,0-0.19,0s-0.09.06-.09,0.19a0.38,0.38,0,0,1-.09.28l-0.4,0a3.65,3.65,0,0,1-.49,0c0-.06,0-0.09.07-0.07s0.07,0,.07-0.07,0,0,0,0,0,0,0,0h0l-0.19,0-0.19,0c-0.06.16-.15,0.21-0.26,0.16a0.21,0.21,0,0,0-.26,0v0a0.19,0.19,0,0,0-.19.09,0.13,0.13,0,0,0,.19,0c0,0.06.05,0.08,0.07,0s0,0,0,0,0,0.09-.07.09a0.26,0.26,0,0,0-.16.09,0.37,0.37,0,0,1-.23-0.07,0.19,0.19,0,0,0-.23,0,3.59,3.59,0,0,0-.54,0l-0.54.09a0.45,0.45,0,0,0-.23.21l-0.14.3a21.14,21.14,0,0,1-.93,2,18.39,18.39,0,0,0-1,2.19c-0.09.28-.16,0.48-0.21,0.61a1.85,1.85,0,0,1-.14.3,1.91,1.91,0,0,0-.14.3q-0.07.19-.21,0.65a6.86,6.86,0,0,0-.79,2.07q-0.28,1.23-.51,2.49a8.6,8.6,0,0,1-.23.84,4.05,4.05,0,0,0-.19.88,4.69,4.69,0,0,1-.26,1.28,1.43,1.43,0,0,0,.16,1.23l0,0s0,0,.14,0a5.59,5.59,0,0,0,1.91-.42,10.43,10.43,0,0,0,1-.35q0.53-.21,1-0.35,0.09-.09.12-0.07s0,0,0-.07l0.28-.07a0.24,0.24,0,0,0,.19-0.21l0.44-.16a1.2,1.2,0,0,0,.28-0.16,1.46,1.46,0,0,1,.26-0.16,3.54,3.54,0,0,1,.42-0.16v-0.19q0.19,0.14.56-.28a0.14,0.14,0,0,1,.09,0l1-.61q0.53-.33,1-0.65a2.18,2.18,0,0,0,.75-0.47q0.51-.42,1-0.93t1-1l0.51-.54a0.13,0.13,0,0,0,.09,0,1.81,1.81,0,0,1,.07-0.33,0.07,0.07,0,0,1,0,0l0,0,0.16-.21c0-.09,0-0.14,0-0.14l0.19-.14a1.47,1.47,0,0,0,.14-0.19,0.33,0.33,0,0,0,.37-0.33,1.08,1.08,0,0,1,.44.21,0.13,0.13,0,0,0,.21,0,0.11,0.11,0,0,0,.09.12l0.19,0c0,0.06,0,.09,0,0.09s0,0,0,0,0,0.08-.12.14-0.13.11,0,.14a0.71,0.71,0,0,1-.09.28,0.28,0.28,0,0,1,.14.14,4.69,4.69,0,0,0-.79,1.07h0a0.13,0.13,0,0,1-.09,0c-0.12.12-.19,0.17-0.19,0.14l-0.28.23V194a0.25,0.25,0,0,0-.09.16,0.14,0.14,0,0,1-.09.12,0.19,0.19,0,0,0,0,.14v0A0,0,0,0,0,447.22,194.31Zm-6.7-10.52a0,0,0,0,1,0,0,0,0,0,0,0,0,0C440.48,183.64,440.45,183.67,440.51,183.79Zm0.14,0c0.06,0.06.11,0.08,0.14,0a0.14,0.14,0,0,1,.09,0,0.08,0.08,0,0,1,0-.07s0-.05,0-0.12a0.11,0.11,0,0,1-.09.12A0.3,0.3,0,0,0,440.65,183.74Zm1.4-.09c-0.06,0-.06,0,0,0v0Zm0,0,0.09-.09A0.08,0.08,0,0,1,442.05,183.6Zm2,13.55,0.26-.23a0.83,0.83,0,0,0,.21-0.28l-0.35.23C444,197,444,197.06,444.05,197.15Zm0.28-13.59c-0.12,0-.18,0-0.16,0l0.12-.12C444.29,183.53,444.3,183.56,444.33,183.56Zm0.33,12.29a0.15,0.15,0,0,0,.19,0,0.15,0.15,0,0,0,0-.19,0.67,0.67,0,0,0-.12.14A0.25,0.25,0,0,1,444.66,195.85Zm0,0.51a0.18,0.18,0,0,0,.23,0,0.72,0.72,0,0,1,.14-0.19,0.37,0.37,0,0,1,0-.23c-0.06,0-.09,0-0.09.14l0,0.09-0.19.12Zm0,0.19c0,0.06.08,0.07,0.16,0a0.09,0.09,0,0,0,0-.16,0.09,0.09,0,0,1-.12.07S444.7,196.49,444.7,196.55Zm0.47,0.19a0.7,0.7,0,0,1,.3-0.3,1.77,1.77,0,0,0,.35-0.21v0a1.71,1.71,0,0,0-.35.23Zm0.09-.88s0,0,0-.09A0.14,0.14,0,0,1,445.26,195.85Zm0.14-12.38a0,0,0,0,1,0,0h0.09c0.06,0.09.07,0.13,0,.12A0.08,0.08,0,0,1,445.4,183.46Zm0.47,12.71,0,0v0h0Zm0.28-.42a0.41,0.41,0,0,1,.19-0.42,0.52,0.52,0,0,0,.23-0.28c0.06,0.06,0,.18-0.12.35Zm2-2.42s0,0,.09-0.14v0l-0.09,0a1.72,1.72,0,0,1-.21.26l-0.21.21v-0.14a0.61,0.61,0,0,0-.14.47l0.09-.09h0l0-.19a0.19,0.19,0,0,1,.14,0,0.27,0.27,0,0,1,.19-0.23l0.14-.23v0Zm-0.37.47c-0.06,0-.09,0-0.07,0s0,0.07,0,.07Zm0.7-11a0.15,0.15,0,0,1-.21,0,0.16,0.16,0,0,0-.21,0,0.89,0.89,0,0,0,.28.07C448.41,182.9,448.46,182.86,448.43,182.77Zm-0.33,10.66a0,0,0,0,1,0,0A0,0,0,0,0,448.1,193.43Zm0,0a0.26,0.26,0,0,0,.09-0.14l-0.09.09v0Z" transform="translate(-218.71 -168.61)"/></svg>